<?xml version="1.0" encoding="UTF-8"?>
<svg width="272px" height="177px" viewBox="0 0 272 177" version="1.1" xmlns="http://www.w3.org/2000/svg" xmlns:xlink="http://www.w3.org/1999/xlink">
    <!-- Generator: Sketch 51.3 (57544) - http://www.bohemiancoding.com/sketch -->
    <title>garage</title>
    <desc>Created with Sketch.</desc>
    <defs></defs>
    <g id="Page-1" stroke="none" stroke-width="1" fill="none" fill-rule="evenodd">
        <g id="Artboard" transform="translate(-1200.000000, -236.000000)" fill-rule="nonzero">
            <g id="garage" transform="translate(1200.000000, 236.000000)">
                <rect id="Rectangle-path" fill="#3496F7" x="13" y="5" width="246" height="171"></rect>
                <rect id="Rectangle-path" fill="#808080" x="100" y="51" width="143" height="126"></rect>
                <polygon id="Shape" fill="#2D4151" points="240 54 103 54 103 177 240 177"></polygon>
                <g id="Group" transform="translate(103.000000, 54.000000)">
                    <rect id="Rectangle-path" fill="#839BAA" x="0.0405191489" y="0.434444444" width="137.412766" height="84.4097222"></rect>
                    <g transform="translate(0.000000, 4.131944)" fill="#678391" id="Rectangle-path">
                        <rect x="0.0405191489" y="0.496423611" width="137.412766" height="1.77083333"></rect>
                        <rect x="0.0405191489" y="4.69034722" width="137.412766" height="1.77083333"></rect>
                        <rect x="0.0405191489" y="8.88427083" width="137.412766" height="1.77083333"></rect>
                        <rect x="0.0405191489" y="13.0787847" width="137.412766" height="1.77083333"></rect>
                        <rect x="0.0405191489" y="17.2727083" width="137.412766" height="1.77083333"></rect>
                        <rect x="0.0405191489" y="21.4666319" width="137.412766" height="1.77083333"></rect>
                        <rect x="0.0405191489" y="25.6611458" width="137.412766" height="1.77083333"></rect>
                        <rect x="0.0405191489" y="29.8550694" width="137.412766" height="1.77083333"></rect>
                        <rect x="0.0405191489" y="34.0489931" width="137.412766" height="1.77083333"></rect>
                        <rect x="0.0405191489" y="42.4374306" width="137.412766" height="1.77083333"></rect>
                        <rect x="0.0405191489" y="50.8252778" width="137.412766" height="1.77083333"></rect>
                        <rect x="0.0405191489" y="59.213125" width="137.412766" height="1.77083333"></rect>
                        <rect x="0.0405191489" y="38.2429167" width="137.412766" height="1.77083333"></rect>
                        <rect x="0.0405191489" y="46.6313542" width="137.412766" height="1.77083333"></rect>
                        <rect x="0.0405191489" y="55.0197917" width="137.412766" height="1.77083333"></rect>
                        <rect x="0.0405191489" y="63.4076389" width="137.412766" height="1.77083333"></rect>
                        <rect x="0.0405191489" y="67.6015625" width="137.412766" height="1.77083333"></rect>
                        <rect x="0.0405191489" y="71.7954861" width="137.412766" height="1.77083333"></rect>
                        <rect x="0.0405191489" y="75.99" width="137.412766" height="1.77083333"></rect>
                    </g>
                </g>
                <polygon id="Shape" fill="#2D4151" points="265.087231 0 6.91276888 0 0 32 272 32"></polygon>
                <rect id="Rectangle-path" fill="#808080" x="30" y="91" width="51" height="86"></rect>
                <rect id="Rectangle-path" fill="#999999" x="33" y="94" width="45" height="83"></rect>
                <g id="Group" transform="translate(36.000000, 96.000000)" fill="#808080">
                    <rect id="Rectangle-path" x="0.530588235" y="0.434909091" width="18.1352941" height="22.75"></rect>
                    <rect id="Rectangle-path" x="0.530588235" y="26.1394545" width="18.1352941" height="26"></rect>
                    <rect id="Rectangle-path" x="0.530588235" y="55.094" width="18.1352941" height="22.75"></rect>
                    <rect id="Rectangle-path" x="21.6070588" y="0.434909091" width="18.1411765" height="22.75"></rect>
                    <rect id="Rectangle-path" x="21.6070588" y="26.1394545" width="18.1411765" height="26"></rect>
                    <rect id="Rectangle-path" x="21.6070588" y="55.094" width="18.1411765" height="22.75"></rect>
                </g>
                <g id="Group" transform="translate(46.000000, 119.000000)">
                    <circle id="Oval" fill="#D8D4D5" cx="10.173" cy="2.0538" r="1.4814"></circle>
                    <polygon id="Shape" fill="#C1B9BC" points="17.343 7.6674 10.197 2.2566 3.3798 7.5348 3.1782 7.2744 10.1952 1.842 17.5422 7.4046"></polygon>
                    <path d="M20.4702,12.192 C20.4702,13.5126 19.3902,14.592 18.0702,14.592 L2.6124,14.592 C1.2924,14.592 0.2124,13.5126 0.2124,12.192 L0.2124,9.0162 C0.2124,7.6968 1.2924,6.6162 2.6124,6.6162 L18.0702,6.6162 C19.3902,6.6162 20.4702,7.6968 20.4702,9.0162 L20.4702,12.192 Z" id="Shape" fill="#ED4C58"></path>
                    <g transform="translate(4.200000, 7.800000)" fill="#FAFCFC" id="Shape">
                        <path d="M1.3086,0.2502 C1.6692,0.2502 1.9758,0.378 2.2284,0.6318 C2.481,0.8856 2.607,1.1916 2.607,1.5492 L2.607,4.5102 C2.607,4.8714 2.4798,5.1774 2.226,5.43 C1.9722,5.6826 1.6662,5.8086 1.3086,5.8086 C0.948,5.8086 0.642,5.682 0.3912,5.4276 C0.1404,5.1738 0.0144,4.8678 0.0144,4.5102 L0.0144,1.5492 C0.0144,1.1886 0.1416,0.882 0.3954,0.6294 C0.6486,0.3768 0.9534,0.2502 1.3086,0.2502 Z M1.7544,1.5324 C1.7544,1.4022 1.7088,1.2924 1.6182,1.2006 C1.527,1.11 1.4172,1.0644 1.287,1.0644 C1.1574,1.0644 1.0464,1.1094 0.954,1.2006 C0.8616,1.2918 0.8154,1.4022 0.8154,1.5324 L0.8154,4.5018 C0.8154,4.6314 0.8616,4.7418 0.954,4.8324 C1.0464,4.9236 1.1574,4.9692 1.287,4.9692 C1.4172,4.9692 1.527,4.9242 1.6182,4.8324 C1.7088,4.7424 1.7544,4.6314 1.7544,4.5018 L1.7544,1.5324 Z"></path>
                        <path d="M4.6194,0.3198 C5.0178,0.3198 5.3352,0.4452 5.5716,0.6966 C5.7906,0.9354 5.9004,1.2414 5.9004,1.614 L5.9004,2.4018 C5.9004,2.76 5.7756,3.0654 5.526,3.3192 C5.2764,3.5736 4.974,3.7002 4.6188,3.7002 L4.1472,3.7002 L4.1472,5.7438 L3.3288,5.7438 L3.3288,0.3198 L4.6194,0.3198 Z M5.109,1.6272 C5.109,1.4856 5.0664,1.3716 4.9812,1.2852 C4.896,1.1988 4.7826,1.155 4.6416,1.155 L4.1484,1.155 L4.1484,2.8914 L4.6416,2.8914 C4.7718,2.8914 4.8816,2.8452 4.9728,2.7528 C5.0634,2.661 5.109,2.55 5.109,2.4198 L5.109,1.6272 Z"></path>
                        <polygon points="6.5544 5.7444 6.5544 0.3162 8.883 0.3162 8.883 1.1382 7.3722 1.1382 7.3722 2.619 8.4762 2.619 8.4762 3.4416 7.3722 3.4416 7.3722 4.9218 8.883 4.9218 8.883 5.7444 6.5544 5.7444"></polygon>
                        <polygon points="10.3644 0.3162 11.4504 3.9642 11.4504 0.3162 12.2688 0.3162 12.2688 5.7444 11.3898 5.7444 10.2648 2.2686 10.2648 5.7444 9.4464 5.7444 9.4464 0.3162"></polygon>
                    </g>
                </g>
                <circle id="Oval" fill="#2D4151" cx="70" cy="139" r="3"></circle>
                <rect id="Rectangle-path" fill="#2278B2" x="22" y="36" width="15" height="6"></rect>
                <rect id="Rectangle-path" fill="#2278B2" x="39" y="36" width="15" height="6"></rect>
                <rect id="Rectangle-path" fill="#2278B2" x="56" y="36" width="15" height="6"></rect>
                <rect id="Rectangle-path" fill="#2278B2" x="108" y="36" width="15" height="6"></rect>
                <rect id="Rectangle-path" fill="#2278B2" x="234" y="36" width="15" height="6"></rect>
                <rect id="Rectangle-path" fill="#2278B2" x="48" y="43" width="15" height="6"></rect>
                <rect id="Rectangle-path" fill="#2278B2" x="66" y="43" width="15" height="6"></rect>
                <rect id="Rectangle-path" fill="#2278B2" x="100" y="43" width="15" height="6"></rect>
                <rect id="Rectangle-path" fill="#2278B2" x="83" y="157" width="15" height="6"></rect>
                <rect id="Rectangle-path" fill="#2278B2" x="15" y="125" width="13" height="6"></rect>
                <rect id="Rectangle-path" fill="#2278B2" x="84" y="149" width="5" height="6"></rect>
                <rect id="Rectangle-path" fill="#2278B2" x="23" y="116" width="5" height="6"></rect>
                <rect id="Rectangle-path" fill="#2278B2" x="91" y="149" width="5" height="6"></rect>
                <rect id="Rectangle-path" fill="#2278B2" x="117" y="43" width="15" height="6"></rect>
                <rect id="Rectangle-path" fill="#2278B2" x="242" y="43" width="15" height="6"></rect>
                <rect id="Rectangle-path" fill="#2278B2" x="225" y="43" width="15" height="6"></rect>
                <rect id="Rectangle-path" fill="#2278B2" x="208" y="43" width="15" height="6"></rect>
            </g>
        </g>
    </g>
</svg>