<?xml version="1.0" encoding="UTF-8"?>
<svg width="153px" height="261px" viewBox="0 0 153 261" version="1.1" xmlns="http://www.w3.org/2000/svg" xmlns:xlink="http://www.w3.org/1999/xlink">
    <!-- Generator: Sketch 51.3 (57544) - http://www.bohemiancoding.com/sketch -->
    <title>large_brewery copy</title>
    <desc>Created with Sketch.</desc>
    <defs></defs>
    <g id="Page-1" stroke="none" stroke-width="1" fill="none" fill-rule="evenodd">
        <g id="Artboard" transform="translate(-765.000000, -672.000000)" fill-rule="nonzero">
            <g id="large_brewery-copy" transform="translate(765.000000, 672.000000)">
                <rect id="Rectangle-path" fill="#CCCCCC" x="4" y="63" width="144" height="198"></rect>
                <g id="Group" transform="translate(13.000000, 74.000000)">
                    <g>
                        <rect id="Rectangle-path" fill="#B3B3B3" x="0.27" y="0.125" width="28.5714286" height="59.2857143"></rect>
                        <rect id="Rectangle-path" fill="#2D4151" x="3.84142857" y="3.69642857" width="21.4285714" height="52.1428571"></rect>
                        <path d="M23.5814286,24.0978571 L23.5814286,54.1364286 L6.39785714,54.1364286 C6.39785714,54.1364286 21.4764286,49.3128571 23.5814286,24.0978571 Z" id="Shape" fill="#FCFAFA" opacity="0.2"></path>
                    </g>
                    <g transform="translate(47.857143, 0.000000)">
                        <rect id="Rectangle-path" fill="#B3B3B3" x="0.368571429" y="0.125" width="28.5714286" height="59.2857143"></rect>
                        <rect id="Rectangle-path" fill="#2D4151" x="3.94" y="3.69642857" width="21.4285714" height="52.1428571"></rect>
                        <path d="M23.68,24.0978571 L23.68,54.1364286 L6.49642857,54.1364286 C6.49642857,54.1364286 21.575,49.3128571 23.68,24.0978571 Z" id="Shape" fill="#FCFAFA" opacity="0.2"></path>
                    </g>
                    <g transform="translate(95.714286, 0.000000)">
                        <rect id="Rectangle-path" fill="#B3B3B3" x="0.467142857" y="0.125" width="28.5714286" height="59.2857143"></rect>
                        <rect id="Rectangle-path" fill="#2D4151" x="4.03857143" y="3.69642857" width="21.4285714" height="52.1428571"></rect>
                        <path d="M23.7785714,24.0978571 L23.7785714,54.1364286 L6.595,54.1364286 C6.595,54.1364286 21.6735714,49.3128571 23.7785714,24.0978571 Z" id="Shape" fill="#FCFAFA" opacity="0.2"></path>
                    </g>
                </g>
                <rect id="Rectangle-path" fill="#B3B3B3" x="24" y="180" width="104" height="80"></rect>
                <rect id="Rectangle-path" fill="#F93030" x="24" y="145" width="104" height="27"></rect>
                <rect id="Rectangle-path" fill="#2D4151" x="28" y="184" width="96" height="77"></rect>
                <rect id="Rectangle-path" fill="#B3B3B3" x="0" y="52" width="153" height="10"></rect>
                <g id="Group" transform="translate(33.000000, 147.000000)" fill="#FFFFFF">
                    <polygon id="Shape" points="9.18604959 2.92315625 2.94218182 2.92315625 2.94218182 9.69521875 7.62508264 9.69521875 7.62508264 12.0670938 2.94218182 12.0670938 2.94218182 22.4285938 0.601090909 22.4285938 0.601090909 0.58290625 9.18604959 0.58290625"></polygon>
                    <path d="M18.2081653,18.9024062 L12.182876,18.9024062 L11.4645868,22.4285937 L9.0918595,22.4285937 L13.7747603,0.58290625 L16.615562,0.58290625 L21.2984628,22.4285937 L18.9257355,22.4285937 L18.2081653,18.9024062 Z M12.6509504,16.5614375 L17.7084545,16.5614375 L15.1797025,4.23415625 L12.6509504,16.5614375 Z" id="Shape"></path>
                    <path d="M33.6927273,19.3077813 C33.6927273,20.1810625 33.3907438,20.9199375 32.7874959,21.5236875 C32.1835289,22.1274375 31.4451074,22.4285938 30.5707934,22.4285938 L26.6680165,22.4285938 C25.7937025,22.4285938 25.054562,22.1274375 24.451314,21.5236875 C23.8473471,20.9206563 23.5460826,20.1817813 23.5460826,19.3077813 L23.5460826,3.70371875 C23.5460826,2.82971875 23.8473471,2.0915625 24.451314,1.4878125 C25.054562,0.88478125 25.7937025,0.58290625 26.6680165,0.58290625 L30.5707934,0.58290625 C31.4451074,0.58290625 32.1835289,0.88478125 32.7874959,1.4878125 C33.3907438,2.0915625 33.6927273,2.82971875 33.6927273,3.70371875 L33.6927273,6.4500625 L31.3516364,6.4500625 L31.3516364,3.70371875 C31.3516364,3.18334375 31.0913554,2.92315625 30.5715124,2.92315625 L26.6687355,2.92315625 C26.1481736,2.92315625 25.8886116,3.18334375 25.8886116,3.70371875 L25.8886116,19.3077813 C25.8886116,19.8281563 26.1488926,20.087625 26.6687355,20.087625 L30.5715124,20.087625 C31.0913554,20.087625 31.3516364,19.8274375 31.3516364,19.3077813 L31.3516364,16.5614375 L33.6927273,16.5614375 L33.6927273,19.3077813 Z" id="Shape"></path>
                    <polygon id="Shape" points="46.4925124 2.92315625 42.5904545 2.92315625 42.5904545 22.4285937 40.2486446 22.4285937 40.2486446 2.92315625 36.3465868 2.92315625 36.3465868 0.58290625 46.4925124 0.58290625 46.4925124 2.92315625"></polygon>
                    <path d="M59.2922975,19.3077813 C59.2922975,20.1810625 58.990314,20.9199375 58.3870661,21.5236875 C57.7830992,22.1274375 57.0446777,22.4285938 56.1703636,22.4285938 L52.2675868,22.4285938 C51.3932727,22.4285938 50.6541322,22.1274375 50.0508843,21.5236875 C49.4469174,20.9206563 49.1456529,20.1817813 49.1456529,19.3077813 L49.1456529,3.70371875 C49.1456529,2.82971875 49.4469174,2.0915625 50.0508843,1.4878125 C50.6541322,0.88478125 51.3932727,0.58290625 52.2675868,0.58290625 L56.1703636,0.58290625 C57.0446777,0.58290625 57.7830992,0.88478125 58.3870661,1.4878125 C58.990314,2.0915625 59.2922975,2.82971875 59.2922975,3.70371875 L59.2922975,19.3077813 Z M56.9512066,3.70371875 C56.9512066,3.18334375 56.6909256,2.92315625 56.1710826,2.92315625 L52.2683058,2.92315625 C51.7477438,2.92315625 51.4881818,3.18334375 51.4881818,3.70371875 L51.4881818,19.3077813 C51.4881818,19.8281562 51.7484628,20.087625 52.2683058,20.087625 L56.1710826,20.087625 C56.6909256,20.087625 56.9512066,19.8274375 56.9512066,19.3077813 L56.9512066,3.70371875 Z" id="Shape"></path>
                    <path d="M72.8729256,10.1638438 C72.8729256,10.8926563 72.6644132,11.5265938 72.2488264,12.0670938 C71.8318017,12.6083125 71.2911074,12.972 70.6253058,13.1595938 L72.8420083,22.4285938 L70.3441736,22.4285938 L68.3460496,13.2846563 L65.0680909,13.2846563 L65.0680909,22.4285938 L62.727,22.4285938 L62.727,0.58290625 L69.7517107,0.58290625 C70.1888678,0.58290625 70.5943884,0.66628125 70.9689917,0.8323125 C71.343595,0.9990625 71.6714628,1.22259375 71.952595,1.503625 C72.2337273,1.78465625 72.4573388,2.11240625 72.6241488,2.486875 C72.7902397,2.86134375 72.8736446,3.2674375 72.8736446,3.7044375 L72.8729256,10.1638438 Z M70.5311157,3.70371875 C70.5311157,3.18334375 70.2708347,2.92315625 69.7509917,2.92315625 L65.0680909,2.92315625 L65.0680909,10.9436875 L69.7509917,10.9436875 C70.2708347,10.9436875 70.5311157,10.6835 70.5311157,10.1638438 L70.5311157,3.70371875 Z" id="Shape"></path>
                    <polygon id="Shape" points="86.4219174 0.58290625 81.7080992 14.0019687 81.7080992 22.4285937 79.3979256 22.4285937 79.3979256 14.0019687 74.7466612 0.58290625 77.2128595 0.58290625 80.5842893 11.3497813 83.9873554 0.58290625"></polygon>
                </g>
                <rect id="Rectangle-path" fill="#E6E6E6" x="26" y="0" width="9" height="52"></rect>
                <rect id="Rectangle-path" fill="#E6E6E6" x="43" y="0" width="9" height="52"></rect>
                <rect id="Rectangle-path" fill="#E6E6E6" x="60" y="0" width="9" height="52"></rect>
                <rect id="Rectangle-path" fill="#F93030" x="26" y="9" width="9" height="6"></rect>
                <rect id="Rectangle-path" fill="#F93030" x="43" y="9" width="9" height="6"></rect>
                <rect id="Rectangle-path" fill="#F93030" x="60" y="9" width="9" height="6"></rect>
            </g>
        </g>
    </g>
</svg>