<?xml version="1.0" encoding="UTF-8"?>
<svg width="219px" height="196px" viewBox="0 0 219 196" version="1.1" xmlns="http://www.w3.org/2000/svg" xmlns:xlink="http://www.w3.org/1999/xlink">
    <!-- Generator: Sketch 51.3 (57544) - http://www.bohemiancoding.com/sketch -->
    <title>large_brewery copy 2</title>
    <desc>Created with Sketch.</desc>
    <defs></defs>
    <g id="Page-1" stroke="none" stroke-width="1" fill="none" fill-rule="evenodd">
        <g id="Artboard" transform="translate(-725.000000, -217.000000)" fill-rule="nonzero">
            <g id="large_brewery-copy-2" transform="translate(725.000000, 217.000000)">
                <rect id="Rectangle-path" fill="#CCCCCC" x="6" y="14" width="206" height="182"></rect>
                <rect id="Rectangle-path" fill="#B3B3B3" x="34" y="80" width="149" height="114"></rect>
                <rect id="Rectangle-path" fill="#F93030" x="34" y="30" width="149" height="39"></rect>
                <rect id="Rectangle-path" fill="#2D4151" x="40" y="86" width="137" height="110"></rect>
                <rect id="Rectangle-path" fill="#B3B3B3" x="0" y="0" width="219" height="14"></rect>
                <g id="Group" transform="translate(47.000000, 33.000000)" fill="#FFFFFF">
                    <polygon id="Shape" points="13.1983471 4.19409375 4.22727273 4.19409375 4.22727273 13.9105313 10.9555785 13.9105313 10.9555785 17.3136563 4.22727273 17.3136563 4.22727273 32.1801563 0.863636364 32.1801563 0.863636364 0.83634375 13.1983471 0.83634375"></polygon>
                    <path d="M26.161157,27.1208437 L17.5041322,27.1208437 L16.4721074,32.1801562 L13.0630165,32.1801562 L19.7913223,0.83634375 L23.8729339,0.83634375 L30.6012397,32.1801562 L27.1921488,32.1801562 L26.161157,27.1208437 Z M18.1766529,23.7620625 L25.4431818,23.7620625 L21.8099174,6.07509375 L18.1766529,23.7620625 Z" id="Shape"></path>
                    <path d="M48.4090909,27.7024688 C48.4090909,28.9554375 47.9752066,30.0155625 47.1084711,30.8818125 C46.2407025,31.7480625 45.1797521,32.1801563 43.9235537,32.1801563 L38.3161157,32.1801563 C37.0599174,32.1801563 35.9979339,31.7480625 35.1311983,30.8818125 C34.2634298,30.0165938 33.8305785,28.9564688 33.8305785,27.7024688 L33.8305785,5.31403125 C33.8305785,4.06003125 34.2634298,3.0009375 35.1311983,2.1346875 C35.9979339,1.26946875 37.0599174,0.83634375 38.3161157,0.83634375 L43.9235537,0.83634375 C45.1797521,0.83634375 46.2407025,1.26946875 47.1084711,2.1346875 C47.9752066,3.0009375 48.4090909,4.06003125 48.4090909,5.31403125 L48.4090909,9.2544375 L45.0454545,9.2544375 L45.0454545,5.31403125 C45.0454545,4.56740625 44.6714876,4.19409375 43.9245868,4.19409375 L38.3171488,4.19409375 C37.5692149,4.19409375 37.196281,4.56740625 37.196281,5.31403125 L37.196281,27.7024688 C37.196281,28.4490938 37.5702479,28.821375 38.3171488,28.821375 L43.9245868,28.821375 C44.6714876,28.821375 45.0454545,28.4480625 45.0454545,27.7024688 L45.0454545,23.7620625 L48.4090909,23.7620625 L48.4090909,27.7024688 Z" id="Shape"></path>
                    <polygon id="Shape" points="66.7995868 4.19409375 61.1931818 4.19409375 61.1931818 32.1801562 57.8285124 32.1801562 57.8285124 4.19409375 52.2221074 4.19409375 52.2221074 0.83634375 66.7995868 0.83634375 66.7995868 4.19409375"></polygon>
                    <path d="M85.1900826,27.7024688 C85.1900826,28.9554375 84.7561983,30.0155625 83.8894628,30.8818125 C83.0216942,31.7480625 81.9607438,32.1801563 80.7045455,32.1801563 L75.0971074,32.1801563 C73.8409091,32.1801563 72.7789256,31.7480625 71.9121901,30.8818125 C71.0444215,30.0165938 70.6115702,28.9564688 70.6115702,27.7024688 L70.6115702,5.31403125 C70.6115702,4.06003125 71.0444215,3.0009375 71.9121901,2.1346875 C72.7789256,1.26946875 73.8409091,0.83634375 75.0971074,0.83634375 L80.7045455,0.83634375 C81.9607438,0.83634375 83.0216942,1.26946875 83.8894628,2.1346875 C84.7561983,3.0009375 85.1900826,4.06003125 85.1900826,5.31403125 L85.1900826,27.7024688 Z M81.8264463,5.31403125 C81.8264463,4.56740625 81.4524793,4.19409375 80.7055785,4.19409375 L75.0981405,4.19409375 C74.3502066,4.19409375 73.9772727,4.56740625 73.9772727,5.31403125 L73.9772727,27.7024688 C73.9772727,28.4490937 74.3512397,28.821375 75.0981405,28.821375 L80.7055785,28.821375 C81.4524793,28.821375 81.8264463,28.4480625 81.8264463,27.7024688 L81.8264463,5.31403125 Z" id="Shape"></path>
                    <path d="M104.702479,14.5829063 C104.702479,15.6285938 104.402893,16.5381563 103.805785,17.3136563 C103.206612,18.0901875 102.429752,18.612 101.47314,18.8811563 L104.658058,32.1801563 L101.069215,32.1801563 L98.1983471,19.0605938 L93.4886364,19.0605938 L93.4886364,32.1801563 L90.125,32.1801563 L90.125,0.83634375 L100.217975,0.83634375 C100.846074,0.83634375 101.428719,0.95596875 101.966942,1.1941875 C102.505165,1.4334375 102.97624,1.75415625 103.380165,2.157375 C103.784091,2.56059375 104.105372,3.03084375 104.345041,3.568125 C104.583678,4.10540625 104.703512,4.6880625 104.703512,5.3150625 L104.702479,14.5829063 Z M101.33781,5.31403125 C101.33781,4.56740625 100.963843,4.19409375 100.216942,4.19409375 L93.4886364,4.19409375 L93.4886364,15.7018125 L100.216942,15.7018125 C100.963843,15.7018125 101.33781,15.3285 101.33781,14.5829063 L101.33781,5.31403125 Z" id="Shape"></path>
                    <polygon id="Shape" points="124.169421 0.83634375 117.396694 20.0897812 117.396694 32.1801562 114.077479 32.1801562 114.077479 20.0897812 107.394628 0.83634375 110.938017 0.83634375 115.782025 16.2844687 120.671488 0.83634375"></polygon>
                </g>
            </g>
        </g>
    </g>
</svg>