<?xml version="1.0" encoding="UTF-8"?>
<svg width="177px" height="201px" viewBox="0 0 177 201" version="1.1" xmlns="http://www.w3.org/2000/svg" xmlns:xlink="http://www.w3.org/1999/xlink">
    <!-- Generator: Sketch 51.3 (57544) - http://www.bohemiancoding.com/sketch -->
    <title>Group 6</title>
    <desc>Created with Sketch.</desc>
    <defs></defs>
    <g id="Page-1" stroke="none" stroke-width="1" fill="none" fill-rule="evenodd">
        <g id="Artboard" transform="translate(-244.000000, -224.000000)" fill-rule="nonzero">
            <g id="Group-6" transform="translate(244.000000, 224.000000)">
                <g id="stand">
                    <path d="M29,201 C25.6843752,201 23,198.390191 23,195.166667 L23,171.833333 C23,168.609809 25.6843752,166 29,166 C32.3156248,166 35,168.609809 35,171.833333 L35,195.166667 C35,198.390191 32.3156248,201 29,201 Z" id="Shape" fill="#3E5959"></path>
                    <path d="M18,107 C14.6843752,107 12,104.338707 12,101.051593 L12,63.9484067 C12,60.6597432 14.6843752,58 18,58 C21.3156248,58 24,60.6597432 24,63.9484067 L24,101.051593 C24,104.338707 21.3156248,107 18,107 Z" id="Shape" fill="#3E5959"></path>
                    <path d="M136,107 C132.684375,107 130,104.338707 130,101.051593 L130,63.9484067 C130,60.6597432 132.684375,58 136,58 C139.315625,58 142,60.6597432 142,63.9484067 L142,101.051593 C142,104.338707 139.315625,107 136,107 Z" id="Shape" fill="#384949"></path>
                    <path d="M171.166667,142 C167.943143,142 165.333333,139.390191 165.333333,136.166667 L165.333333,124.5 C165.333333,121.281033 162.718967,118.666667 159.5,118.666667 L147.833333,118.666667 C144.609809,118.666667 142,116.056857 142,112.833333 C142,109.609809 144.609809,107 147.833333,107 L159.5,107 C169.149306,107 177,114.850694 177,124.5 L177,136.166667 C177,139.390191 174.390191,142 171.166667,142 Z" id="Shape" fill="#384949"></path>
                    <path d="M154,113 L154,160.272727 C154,170.062737 146.04395,178 136.230769,178 L5.92307692,178 C2.6515025,178 0,175.354758 0,172.090909 L0,113 L154,113 Z" id="Shape" fill="#76DD91"></path>
                    <path d="M154,113 L154,160.272727 C154,170.062737 146.04395,178 136.230769,178 L77,178 L77,113 L154,113 Z" id="Shape" fill="#62C479"></path>
                    <path d="M154,112.5 C154,122.182726 146.064003,130 136.230769,130 C131.611078,130 127.464924,128.25 124.384615,125.450304 C121.304307,128.25 117.158153,130 112.538462,130 C107.91877,130 103.772616,128.25 100.692308,125.450304 C97.6119993,128.25 93.4658455,130 88.8461538,130 C84.2264622,130 80.0803084,128.25 77,125.450304 C73.9196916,128.25 69.7735378,130 65.1538462,130 C60.5341545,130 56.3880007,128.25 53.3076923,125.450304 C50.2273839,128.25 46.0812301,130 41.4615385,130 C36.8418469,130 32.695693,128.25 29.6153846,125.450304 C26.5350762,128.25 22.3889224,130 17.7692308,130 C7.9359975,130 0,122.182726 0,112.5 C0,112.033637 0,111.682726 0.118769933,111.333333 C0.711077626,102.233941 8.29230769,95 17.7692308,95 L136.230769,95 C145.707692,95 153.288922,102.233941 153.88123,111.333333 C154,111.682726 154,112.033637 154,112.5 Z" id="Shape" fill="#F9C032"></path>
                    <path d="M154,112.5 C154,122.182726 146.064003,130 136.230769,130 C131.611078,130 127.464924,128.25 124.384615,125.450304 C121.304307,128.25 117.158153,130 112.538462,130 C107.91877,130 103.772616,128.25 100.692308,125.450304 C97.6119993,128.25 93.4658455,130 88.8461538,130 C84.2264622,130 80.0803084,128.25 77,125.450304 L77,95 L136.230769,95 C145.707692,95 153.288922,102.233941 153.88123,111.333333 C154,111.682726 154,112.033637 154,112.5 Z" id="Shape" fill="#DBA52C"></path>
                    <path d="M147.189052,180.5 C145.538868,183.311124 141.888834,184.249181 139.178914,182.607962 L117.389131,170.192038 L117.389131,195.142857 C117.389131,198.422247 114.798833,201 111.5,201 C108.201167,201 105.610869,198.422247 105.610869,195.142857 L105.610869,170.192038 L83.8210861,182.607962 C80.9946101,184.249181 77.4611317,183.311124 75.8109482,180.5 C74.1622987,177.688876 75.1054795,174.174591 77.9319555,172.534896 L99.7217388,160 L77.9319555,147.465104 C75.1054795,145.825409 74.1638322,142.311124 75.8109482,139.5 C77.4611317,136.688876 80.9946101,135.750819 83.8210861,137.392038 L105.610869,149.807962 L105.610869,124.857143 C105.610869,121.576228 108.201167,119 111.5,119 C114.798833,119 117.389131,121.576228 117.389131,124.857143 L117.389131,149.807962 L139.178914,137.392038 C142.00539,135.750819 145.538868,136.688876 147.189052,139.5 C148.837701,142.311124 147.894521,145.825409 145.068044,147.465104 L123.278261,160 L145.068044,172.534896 C147.894521,174.174591 148.836168,177.688876 147.189052,180.5 Z" id="Shape" fill="#D3D3D8"></path>
                    <path d="M148.177943,180.5 C146.505154,183.311124 142.80512,184.249181 140.058077,182.607962 L117.969804,170.192038 L117.969804,195.142857 C117.969804,198.422247 115.344023,201 112,201 L112,119 C115.344023,119 117.969804,121.576228 117.969804,124.857143 L117.969804,149.807962 L140.058077,137.392038 C142.923272,135.750819 146.505154,136.688876 148.177943,139.5 C149.849177,142.311124 148.893076,145.825409 146.027881,147.465104 L123.939607,160 L146.027881,172.534896 C148.893076,174.174591 149.847622,177.688876 148.177943,180.5 Z" id="Shape" fill="#BABAC0"></path>
                    <path d="M28.6140351,0 C21.9149123,0 15.7914475,3.74015357 12.7964912,9.66219008 L0,35.3471074 L19.1578947,47 L38.3157895,35.3471074 L56,11.6528926 L50.1052632,0 L28.6140351,0 Z" id="Shape" fill="#E6E6E6"></path>
                    <path d="M19,71 C8.50584946,71 0,62.5128037 0,52.0416667 L0,36 L38,36 L38,52.0416667 C38,62.5128037 29.4941505,71 19,71 Z" id="Shape" fill="#D1D1D1"></path>
                    <path d="M140.361186,9.66219008 C137.403133,3.74015357 131.355121,0 124.738544,0 L103.512129,0 L99,26.3161157 L115.156334,35.3471074 L134.078167,47 L153,35.3471074 L140.361186,9.66219008 Z" id="Shape" fill="#F9C032"></path>
                    <polygon id="Shape" fill="#F9C032" points="49.7647059 0 38 35.3471074 57.1176471 47 76.2352941 35.3471074 88 11.6528926 76.2352941 0"></polygon>
                    <path d="M57,71 C46.5058495,71 38,62.5128037 38,52.0416667 L38,36 L76,36 L76,52.0416667 C76,62.5128037 67.4941505,71 57,71 Z" id="Shape" fill="#DBA52C"></path>
                    <polygon id="Shape" fill="#E6E6E6" points="77 0 77 35.3471074 99.6538462 47 115 35.3471074 103.307692 0"></polygon>
                    <path d="M96,71 C85.5058495,71 77,62.5128037 77,52.0416667 L77,36 L115,36 L115,52.0416667 C115,62.5128037 106.494151,71 96,71 Z" id="Shape" fill="#D1D1D1"></path>
                    <path d="M134,71 C123.505849,71 115,62.5128037 115,52.0416667 L115,36 L153,36 L153,52.0416667 C153,62.5128037 144.494151,71 134,71 Z" id="Shape" fill="#DBA52C"></path>
                    <path d="M41.1666667,201 L17.8333333,201 C14.6098092,201 12,198.315625 12,195 C12,191.684375 14.6098092,189 17.8333333,189 L41.1666667,189 C44.3901908,189 47,191.684375 47,195 C47,198.315625 44.3901908,201 41.1666667,201 Z" id="Shape" fill="#3E5959"></path>
                    <path d="M111,119 C88.3920385,119 70,137.392038 70,160 C70,182.607962 88.3920385,201 111,201 C133.607962,201 152,182.607962 152,160 C152,137.392038 133.607962,119 111,119 Z M111,189.285714 C94.8348956,189.285714 81.7142857,176.165104 81.7142857,160 C81.7142857,143.834896 94.8348956,130.714286 111,130.714286 C127.165104,130.714286 140.285714,143.834896 140.285714,160 C140.285714,176.165104 127.165104,189.285714 111,189.285714 Z" id="Shape" fill="#4A696F"></path>
                    <path d="M112,119 L112,130.714286 C128.559375,130.714286 142,143.834896 142,160 C142,176.165104 128.559375,189.285714 112,189.285714 L112,201 C135.159375,201 154,182.607962 154,160 C154,137.392038 135.159375,119 112,119 Z" id="Shape" fill="#3E5959"></path>
                </g>
            </g>
        </g>
    </g>
</svg>