<?xml version="1.0" encoding="UTF-8"?>
<svg width="273px" height="239px" viewBox="0 0 273 239" version="1.1" xmlns="http://www.w3.org/2000/svg" xmlns:xlink="http://www.w3.org/1999/xlink">
    <!-- Generator: Sketch 51.3 (57544) - http://www.bohemiancoding.com/sketch -->
    <title>Group 4</title>
    <desc>Created with Sketch.</desc>
    <defs></defs>
    <g id="Page-1" stroke="none" stroke-width="1" fill="none" fill-rule="evenodd">
        <g id="Artboard" transform="translate(-195.000000, -672.000000)">
            <g id="Group-4" transform="translate(195.000000, 672.000000)">
                <g id="bar" fill-rule="nonzero">
                    <rect id="Rectangle-path" fill="#76DD91" x="21" y="44" width="231" height="194"></rect>
                    <g id="Group" transform="translate(21.000000, 79.000000)" fill="#62C479">
                        <path d="M6.58607821,0.00954545455 C6.58607821,4.69954545 4.14294972,8.82318182 0.429653631,11.2159091 L0.429653631,0.00954545455 L6.58607821,0.00954545455 Z" id="Shape"></path>
                        <path d="M33.9044022,0.00763636364 C33.9044022,7.42127273 27.7894525,13.426 20.2397318,13.426 C12.6984358,13.426 6.58348603,7.42127273 6.58348603,0.00763636364 L33.9044022,0.00763636364 Z" id="Shape"></path>
                        <path d="M61.2253184,0.00763636364 C61.2253184,7.42127273 55.1103687,13.426 47.5690726,13.426 C40.019352,13.426 33.9044022,7.42127273 33.9044022,0.00763636364 L61.2253184,0.00763636364 Z" id="Shape"></path>
                        <path d="M88.5462346,0.00763636364 C88.5462346,7.42127273 82.4312849,13.426 74.8899888,13.426 C67.3402682,13.426 61.2253184,7.42127273 61.2253184,0.00763636364 L88.5462346,0.00763636364 Z" id="Shape"></path>
                        <path d="M115.867151,0.00763636364 C115.867151,7.42127273 109.752201,13.426 102.210905,13.426 C94.6611844,13.426 88.5462346,7.42127273 88.5462346,0.00763636364 L115.867151,0.00763636364 Z" id="Shape"></path>
                        <path d="M143.195844,0.00763636364 C143.195844,7.42127273 137.073117,13.426 129.531173,13.426 C121.989877,13.426 115.866503,7.42127273 115.866503,0.00763636364 L143.195844,0.00763636364 Z" id="Shape"></path>
                        <path d="M170.51676,0.00763636364 C170.51676,7.42127273 164.40181,13.426 156.852089,13.426 C149.310793,13.426 143.195844,7.42127273 143.195844,0.00763636364 L170.51676,0.00763636364 Z" id="Shape"></path>
                        <path d="M197.837676,0.00763636364 C197.837676,7.42127273 191.722726,13.426 184.173006,13.426 C176.631709,13.426 170.51676,7.42127273 170.51676,0.00763636364 L197.837676,0.00763636364 Z" id="Shape"></path>
                        <path d="M225.158592,0.00763636364 C225.158592,7.42127273 219.043642,13.426 211.493922,13.426 C203.952626,13.426 197.837676,7.42127273 197.837676,0.00763636364 L225.158592,0.00763636364 Z" id="Shape"></path>
                        <path d="M231.606637,0.00954545455 L231.606637,11.4004545 C227.73133,9.03318182 225.158592,4.82045455 225.158592,0.00954545455 L231.606637,0.00954545455 Z" id="Shape"></path>
                    </g>
                    <rect id="Rectangle-path" fill="#62C479" x="21" y="44" width="231" height="35"></rect>
                    <rect id="Rectangle-path" fill="#4EAF60" x="32" y="98" width="75" height="141"></rect>
                    <rect id="Rectangle-path" fill="#62C479" x="35" y="101" width="69" height="135"></rect>
                    <rect id="Rectangle-path" fill="#76DD91" x="40" y="103" width="58" height="81"></rect>
                    <rect id="Rectangle-path" fill="#2D4151" x="44" y="107" width="51" height="74"></rect>
                    <rect id="Rectangle-path" fill="#76DD91" x="40" y="189" width="58" height="42"></rect>
                    <rect id="Rectangle-path" fill="#62C479" x="43" y="192" width="52" height="35"></rect>
                    <g id="Group" transform="translate(49.000000, 198.000000)" fill="#76DD91">
                        <rect id="Rectangle-path" x="0.0208253968" y="17.4205833" width="40.4865238" height="5.12516667"></rect>
                        <rect id="Rectangle-path" x="0.0208253968" y="0.255555556" width="40.4865238" height="5.12516667"></rect>
                        <rect id="Rectangle-path" x="0.0208253968" y="8.83838889" width="40.4865238" height="5.12516667"></rect>
                    </g>
                    <g id="Group" transform="translate(58.000000, 145.000000)">
                        <ellipse id="Oval" fill="#D8D4D5" cx="11.0774571" cy="1.68866667" rx="1.62248571" ry="1.646"></ellipse>
                        <polygon id="Shape" fill="#C1B9BC" points="18.9303143 7.926 11.1037429 1.914 3.63728571 7.77866667 3.41648571 7.48933333 11.1017714 1.45333333 19.1484857 7.634"></polygon>
                        <path d="M22.3553429,12.9533333 C22.3553429,14.4206667 21.1724857,15.62 19.7267714,15.62 L2.7968,15.62 C1.35108571,15.62 0.168228571,14.4206667 0.168228571,12.9533333 L0.168228571,9.42466667 C0.168228571,7.95866667 1.35108571,6.758 2.7968,6.758 L19.7267714,6.758 C21.1724857,6.758 22.3553429,7.95866667 22.3553429,9.42466667 L22.3553429,12.9533333 Z" id="Shape" fill="#C12525"></path>
                        <g transform="translate(3.942857, 8.000000)" fill="#FAFCFC" id="Shape">
                            <path d="M2.02597143,0.351333333 C2.42091429,0.351333333 2.75671429,0.493333333 3.03337143,0.775333333 C3.31002857,1.05733333 3.44802857,1.39733333 3.44802857,1.79466667 L3.44802857,5.08466667 C3.44802857,5.486 3.30871429,5.826 3.03074286,6.10666667 C2.75277143,6.38733333 2.41762857,6.52733333 2.02597143,6.52733333 C1.63102857,6.52733333 1.29588571,6.38666667 1.0212,6.104 C0.746514286,5.822 0.608514286,5.482 0.608514286,5.08466667 L0.608514286,1.79466667 C0.608514286,1.394 0.747828571,1.05333333 1.0258,0.772666667 C1.30311429,0.492 1.63694286,0.351333333 2.02597143,0.351333333 Z M2.51422857,1.776 C2.51422857,1.63133333 2.46428571,1.50933333 2.36505714,1.40733333 C2.26517143,1.30666667 2.14491429,1.256 2.00231429,1.256 C1.86037143,1.256 1.7388,1.306 1.6376,1.40733333 C1.5364,1.50866667 1.4858,1.63133333 1.4858,1.776 L1.4858,5.07533333 C1.4858,5.21933333 1.5364,5.342 1.6376,5.44266667 C1.7388,5.544 1.86037143,5.59466667 2.00231429,5.59466667 C2.14491429,5.59466667 2.26517143,5.54466667 2.36505714,5.44266667 C2.46428571,5.34266667 2.51422857,5.21933333 2.51422857,5.07533333 L2.51422857,1.776 Z"></path>
                            <path d="M5.65208571,0.428666667 C6.08842857,0.428666667 6.43605714,0.568 6.69497143,0.847333333 C6.93482857,1.11266667 7.05508571,1.45266667 7.05508571,1.86666667 L7.05508571,2.742 C7.05508571,3.14 6.9184,3.47933333 6.64502857,3.76133333 C6.37165714,4.044 6.04045714,4.18466667 5.65142857,4.18466667 L5.13491429,4.18466667 L5.13491429,6.45533333 L4.23857143,6.45533333 L4.23857143,0.428666667 L5.65208571,0.428666667 Z M6.18831429,1.88133333 C6.18831429,1.724 6.14165714,1.59733333 6.04834286,1.50133333 C5.95502857,1.40533333 5.83082857,1.35666667 5.6764,1.35666667 L5.13622857,1.35666667 L5.13622857,3.286 L5.6764,3.286 C5.819,3.286 5.93925714,3.23466667 6.03914286,3.132 C6.13837143,3.03 6.18831429,2.90666667 6.18831429,2.762 L6.18831429,1.88133333 Z"></path>
                            <polygon points="7.77137143 6.456 7.77137143 0.424666667 10.3217429 0.424666667 10.3217429 1.338 8.66705714 1.338 8.66705714 2.98333333 9.8762 2.98333333 9.8762 3.89733333 8.66705714 3.89733333 8.66705714 5.542 10.3217429 5.542 10.3217429 6.456 7.77137143 6.456"></polygon>
                            <polygon points="11.9442286 0.424666667 13.1336571 4.478 13.1336571 0.424666667 14.03 0.424666667 14.03 6.456 13.0672857 6.456 11.8351429 2.594 11.8351429 6.456 10.9388 6.456 10.9388 0.424666667"></polygon>
                        </g>
                    </g>
                    <rect id="Rectangle-path" fill="#4EAF60" x="113" y="98" width="127" height="114"></rect>
                    <rect id="Rectangle-path" fill="#62C479" x="116" y="101" width="121" height="107"></rect>
                    <rect id="Rectangle-path" fill="#2D4151" x="118" y="103" width="116" height="102"></rect>
                    <g id="Group" transform="translate(0.000000, 74.000000)">
                        <path d="M27.2734763,0.643695652 C27.2734763,8.24152174 21.1691445,14.3954348 13.6325332,14.3954348 C6.10433175,14.3954348 0,8.24152174 0,0.643695652" id="Shape" fill="#DBA52C"></path>
                        <path d="M54.5469526,0.643695652 C54.5469526,8.24152174 48.4426209,14.3954348 40.9060095,14.3954348 C33.3778081,14.3954348 27.2734763,8.24152174 27.2734763,0.643695652" id="Shape" fill="#D1D1D1"></path>
                        <path d="M81.8204289,0.643695652 C81.8204289,8.24152174 75.7160972,14.3954348 68.1878957,14.3954348 C60.6512844,14.3954348 54.5469526,8.24152174 54.5469526,0.643695652" id="Shape" fill="#DBA52C"></path>
                        <path d="M109.093905,0.643695652 C109.093905,8.24152174 102.989573,14.3954348 95.461372,14.3954348 C87.9247607,14.3954348 81.8204289,8.24152174 81.8204289,0.643695652" id="Shape" fill="#D1D1D1"></path>
                        <path d="M136.367382,0.643695652 C136.367382,8.24152174 130.26305,14.3954348 122.734848,14.3954348 C115.198237,14.3954348 109.093905,8.24152174 109.093905,0.643695652" id="Shape" fill="#DBA52C"></path>
                        <path d="M163.648621,0.643695652 C163.648621,8.24152174 157.536526,14.3954348 150.007678,14.3954348 C142.479476,14.3954348 136.366735,8.24152174 136.366735,0.643695652" id="Shape" fill="#D1D1D1"></path>
                        <path d="M190.922097,0.643695652 C190.922097,8.24152174 184.817765,14.3954348 177.281154,14.3954348 C169.752953,14.3954348 163.648621,8.24152174 163.648621,0.643695652" id="Shape" fill="#DBA52C"></path>
                        <path d="M218.195573,0.643695652 C218.195573,8.24152174 212.091242,14.3954348 204.55463,14.3954348 C197.026429,14.3954348 190.922097,8.24152174 190.922097,0.643695652" id="Shape" fill="#D1D1D1"></path>
                        <path d="M245.46905,0.643695652 C245.46905,8.24152174 239.364718,14.3954348 231.828107,14.3954348 C224.299905,14.3954348 218.195573,8.24152174 218.195573,0.643695652" id="Shape" fill="#DBA52C"></path>
                        <path d="M272.741879,0.643695652 C272.741879,8.24152174 266.637547,14.3954348 259.109346,14.3954348 C251.572735,14.3954348 245.468403,8.24152174 245.468403,0.643695652" id="Shape" fill="#D1D1D1"></path>
                    </g>
                    <g id="Group" transform="translate(0.000000, 33.000000)">
                        <polygon id="Shape" fill="#F9C032" points="44.1794218 0.187384615 21.1322701 0.187384615 0 41.9916 27.2734763 41.9916"></polygon>
                        <polygon id="Shape" fill="#E6E6E6" points="67.2265735 0.187384615 44.1794218 0.187384615 27.2734763 41.9916 54.5469526 41.9916"></polygon>
                        <polygon id="Shape" fill="#F9C032" points="90.2737251 0.187384615 67.2265735 0.187384615 54.5469526 41.9916 81.8204289 41.9916"></polygon>
                        <polygon id="Shape" fill="#E6E6E6" points="113.320877 0.187384615 90.2737251 0.187384615 81.8204289 41.9916 109.093905 41.9916"></polygon>
                        <polygon id="Shape" fill="#F9C032" points="136.368028 0.187384615 113.320877 0.187384615 109.093905 41.9916 136.367382 41.9916"></polygon>
                        <polygon id="Shape" fill="#E6E6E6" points="159.414533 0.187384615 136.368028 0.187384615 136.367382 41.9916 163.640858 41.9916"></polygon>
                        <polygon id="Shape" fill="#F9C032" points="182.461685 0.187384615 159.414533 0.187384615 163.640858 41.9916 190.914334 41.9916"></polygon>
                        <polygon id="Shape" fill="#E6E6E6" points="205.508836 0.187384615 182.461685 0.187384615 190.914334 41.9916 218.18781 41.9916"></polygon>
                        <polygon id="Shape" fill="#E6E6E6" points="251.609609 0.187384615 228.562457 0.187384615 245.46905 41.9916 272.741879 41.9916"></polygon>
                        <polygon id="Shape" fill="#F9C032" points="228.562457 0.187384615 205.515306 0.187384615 218.195573 41.9916 245.46905 41.9916"></polygon>
                    </g>
                    <g id="Group" transform="translate(137.000000, 165.000000)">
                        <rect id="Rectangle-path" fill="#D8722E" x="36.6522645" y="11.3129032" width="4.51239669" height="28.4967742"></rect>
                        <polygon id="Shape" fill="#E6E6E6" points="34.5778512 8.08709677 38.9110413 0.575483871 43.2442314 8.08709677"></polygon>
                        <g transform="translate(18.694215, 3.870968)" fill="#E6E6E6" id="Shape">
                            <path d="M9.09699174,0.425806452 C9.09699174,2.87548387 7.11282645,4.86129032 4.66517355,4.86129032 C2.21752066,4.86129032 0.233355372,2.87548387 0.233355372,0.425806452"></path>
                            <path d="M40.2002975,0.425806452 C40.2002975,2.87548387 38.2161322,4.86129032 35.7684793,4.86129032 C33.3208264,4.86129032 31.3366612,2.87548387 31.3366612,0.425806452"></path>
                        </g>
                        <rect id="Rectangle-path" fill="#C6622A" x="36.6522645" y="12.2806452" width="4.51239669" height="4.51612903"></rect>
                        <path d="M61.1507107,12.6032258 L16.6713719,12.6032258 C15.4253058,12.6032258 14.4151736,11.5922581 14.4151736,10.3451613 C14.4151736,9.09806452 15.4253058,8.08709677 16.6713719,8.08709677 L61.1507107,8.08709677 C62.3967769,8.08709677 63.4069091,9.09806452 63.4069091,10.3451613 C63.4069091,11.5922581 62.3967769,12.6032258 61.1507107,12.6032258 Z" id="Shape" fill="#D8722E"></path>
                        <g transform="translate(0.000000, 1.290323)">
                            <g>
                                <rect id="Rectangle-path" fill="#D8722E" x="1.70504132" y="27.7645161" width="4.51239669" height="10.7529032"></rect>
                                <rect id="Rectangle-path" fill="#D8722E" x="15.0333719" y="27.7645161" width="4.51239669" height="10.7529032"></rect>
                                <rect id="Rectangle-path" fill="#C6622A" x="15.0333719" y="27.4419355" width="4.51239669" height="4.51612903"></rect>
                                <rect id="Rectangle-path" fill="#C6622A" x="1.70504132" y="27.4419355" width="4.51239669" height="4.51612903"></rect>
                                <path d="M19.4181322,24.216129 L4.60586777,24.216129 L4.60586777,2.62322581 C4.60586777,1.40064516 3.6911405,0.304516129 2.4708595,0.240645161 C1.17,0.172258065 0.0934710744,1.2083871 0.0934710744,2.49548387 L0.0934710744,24.216129 L0.0934710744,27.1916129 C0.0934710744,28.0425806 0.782578512,28.7322581 1.63284298,28.7322581 L4.60586777,28.7322581 L19.5457686,28.7322581 C20.8318017,28.7322581 21.8670744,27.6548387 21.7987438,26.3529032 C21.7349256,25.1316129 20.6397025,24.216129 19.4181322,24.216129 Z" id="Shape" fill="#D8722E"></path>
                            </g>
                            <g transform="translate(55.438017, 0.000000)">
                                <rect id="Rectangle-path" fill="#D8722E" x="16.1614711" y="27.7645161" width="4.51239669" height="10.7529032"></rect>
                                <rect id="Rectangle-path" fill="#D8722E" x="2.8331405" y="27.7645161" width="4.51239669" height="10.7529032"></rect>
                                <rect id="Rectangle-path" fill="#C6622A" x="2.8331405" y="27.4419355" width="4.51239669" height="4.51612903"></rect>
                                <rect id="Rectangle-path" fill="#C6622A" x="16.1614711" y="27.4419355" width="4.51239669" height="4.51612903"></rect>
                                <path d="M19.9080496,0.240645161 C18.6877686,0.304516129 17.7730413,1.40064516 17.7730413,2.62322581 L17.7730413,24.216129 L2.96077686,24.216129 C1.73920661,24.216129 0.643983471,25.1316129 0.580165289,26.3529032 C0.511834711,27.6548387 1.54710744,28.7322581 2.8331405,28.7322581 L17.7730413,28.7322581 L20.7460661,28.7322581 C21.5963306,28.7322581 22.285438,28.0425806 22.285438,27.1916129 L22.285438,24.216129 L22.285438,2.49548387 C22.285438,1.2083871 21.2089091,0.172903226 19.9080496,0.240645161 Z" id="Shape" fill="#D8722E"></path>
                            </g>
                        </g>
                    </g>
                    <path d="M124.108399,166.913441 C133.03305,170.920168 139.552153,183.471126 139.552153,198.339383 C139.552153,200.624318 139.395694,202.850996 139.102335,205 L118,205 L118,103 L160.113402,103 C160.628411,106.126412 160.92829,109.349918 160.986962,112.651098 C160.993481,113.058891 161,113.473156 161,113.887422 C161,140.892372 144.963008,163.217413 124.108399,166.913441 Z" id="Shape" fill="#F9C032"></path>
                    <path d="M234,103 L234,205 L212.897665,205 C212.604306,202.850996 212.447847,200.624318 212.447847,198.339383 C212.447847,183.471126 218.96695,170.920168 227.891601,166.913441 C207.036992,163.217413 191,140.892372 191,113.887422 C191,113.473156 191.006519,113.058891 191.013038,112.651098 C191.07171,109.349918 191.371589,106.126412 191.886598,103 L234,103 Z" id="Shape" fill="#F9C032"></path>
                    <rect id="Rectangle-path" fill="#D8722E" x="118" y="166" width="10" height="3"></rect>
                    <rect id="Rectangle-path" fill="#D8722E" x="224" y="166" width="10" height="3"></rect>
                    <path d="M160.126175,103 C160.641341,106.239437 160.94131,109.579477 161,113 L118,113 L118,103 L160.126175,103 Z" id="Shape" fill="#DBA52C"></path>
                    <rect id="Rectangle-path" fill="#D8722E" x="175" y="103" width="3" height="33"></rect>
                    <path d="M234,103 L234,113 L191,113 C191.058406,109.579477 191.356927,106.239437 191.869605,103 L234,103 Z" id="Shape" fill="#DBA52C"></path>
                    <path d="M191,145 C191,136.716017 184.284623,130 176,130 C167.715377,130 161,136.715377 161,145" id="Shape" fill="#F9C032"></path>
                    <path d="M123,201 L231,201 L231,139 C230.998711,139 213.655918,193.405128 123,201 Z" id="Shape" fill="#FCFAFA" opacity="0.2"></path>
                    <rect id="Rectangle-path" fill="#76DD91" x="48" y="0" width="185" height="48"></rect>
                    <rect id="Rectangle-path" fill="#F9C032" x="53" y="5" width="175" height="39"></rect>
                    <rect id="Rectangle-path" fill="#62C479" x="57" y="9" width="166" height="30"></rect>
                    <rect id="Rectangle-path" fill="#76DD91" x="62" y="14" width="161" height="25"></rect>
                    <rect id="Rectangle-path" fill="#4EAF60" x="113" y="214" width="127" height="21"></rect>
                    <rect id="Rectangle-path" fill="#76DD91" x="116" y="218" width="121" height="15"></rect>
                    <g id="Group" transform="translate(85.000000, 22.000000)" fill="#2D4151">
                        <rect id="Rectangle-path" x="0.562140351" y="0.62" width="20.7719298" height="3.80928571"></rect>
                        <rect id="Rectangle-path" x="89.7087719" y="0.62" width="20.7719298" height="3.80928571"></rect>
                    </g>
                    <g id="Group" transform="translate(93.000000, 28.000000)" fill="#2D4151">
                        <rect id="Rectangle-path" x="0" y="0" width="18" height="4"></rect>
                        <rect id="Rectangle-path" x="76" y="0" width="18" height="4"></rect>
                    </g>
                    <path d="M93,121 L93,180 L59,180 C59,180 88.8349886,170.524989 93,121 Z" id="Shape" fill="#FCFAFA" opacity="0.2"></path>
                </g>
                <text id="bar" font-family="PermanentMarker-Regular, Permanent Marker" font-size="24" font-weight="normal" letter-spacing="0.05345452" fill="#2D4151">
                    <tspan x="121" y="34">bar</tspan>
                </text>
            </g>
        </g>
    </g>
</svg>