<?xml version="1.0" encoding="UTF-8"?>
<svg width="238px" height="237px" viewBox="0 0 238 237" version="1.1" xmlns="http://www.w3.org/2000/svg" xmlns:xlink="http://www.w3.org/1999/xlink">
    <!-- Generator: Sketch 51.3 (57544) - http://www.bohemiancoding.com/sketch -->
    <title>Group 5</title>
    <desc>Created with Sketch.</desc>
    <defs></defs>
    <g id="Page-1" stroke="none" stroke-width="1" fill="none" fill-rule="evenodd">
        <g id="Artboard" transform="translate(-213.000000, -1170.000000)">
            <g id="Group-5" transform="translate(213.000000, 1170.000000)">
                <g id="disco" fill-rule="nonzero">
                    <rect id="Rectangle-path" fill="#76DD91" x="7" y="38" width="225" height="199"></rect>
                    <g id="Group" transform="translate(73.000000, 147.000000)">
                        <g>
                            <rect id="Rectangle-path" fill="#62C479" x="0.210086331" y="0.429179104" width="47.5035971" height="89.3283582"></rect>
                            <rect id="Rectangle-path" fill="#2D4151" x="3.55541007" y="3.78738806" width="40.8129496" height="82.6119403"></rect>
                            <path d="M41.9824748,6.71574627 L41.9824748,83.8934328 L9.86669784,83.8934328 C9.86669784,83.8934328 38.0483741,54.0214925 41.9824748,6.71574627 Z" id="Shape" fill="#FCFAFA" opacity="0.2"></path>
                            <rect id="Rectangle-path" fill="#62C479" x="1.8827482" y="23.6008209" width="44.1582734" height="3.35820896"></rect>
                        </g>
                        <g transform="translate(44.827338, 0.000000)">
                            <rect id="Rectangle-path" fill="#62C479" x="0.217446043" y="0.429179104" width="47.5035971" height="89.3283582"></rect>
                            <rect id="Rectangle-path" fill="#2D4151" x="3.56276978" y="3.78738806" width="40.8129496" height="82.6119403"></rect>
                            <path d="M41.9891655,6.71574627 L41.9891655,83.8934328 L9.87405755,83.8934328 C9.87405755,83.8934328 38.0550647,54.0214925 41.9891655,6.71574627 Z" id="Shape" fill="#FCFAFA" opacity="0.2"></path>
                            <rect id="Rectangle-path" fill="#62C479" x="1.89010791" y="23.6008209" width="44.1582734" height="3.35820896"></rect>
                        </g>
                    </g>
                    <g id="Group" transform="translate(175.000000, 147.000000)">
                        <rect id="Rectangle-path" fill="#62C479" x="0.145333333" y="0.429179104" width="47.3333333" height="89.3283582"></rect>
                        <rect id="Rectangle-path" fill="#2D4151" x="3.47866667" y="3.78738806" width="40.6666667" height="82.6119403"></rect>
                        <path d="M41.7673333,6.71574627 L41.7673333,83.8934328 L9.76733333,83.8934328 C9.76733333,83.8934328 37.8473333,54.0214925 41.7673333,6.71574627 Z" id="Shape" fill="#FCFAFA" opacity="0.2"></path>
                        <rect id="Rectangle-path" fill="#62C479" x="1.812" y="23.6008209" width="44" height="3.35820896"></rect>
                    </g>
                    <g id="Group" transform="translate(15.000000, 147.000000)">
                        <rect id="Rectangle-path" fill="#62C479" x="0.280666667" y="0.429179104" width="47.3333333" height="89.3283582"></rect>
                        <rect id="Rectangle-path" fill="#2D4151" x="3.614" y="3.78738806" width="40.6666667" height="82.6119403"></rect>
                        <path d="M41.9033333,6.71574627 L41.9033333,83.8934328 L9.90333333,83.8934328 C9.90266667,83.8927612 37.9826667,54.0214925 41.9033333,6.71574627 Z" id="Shape" fill="#FCFAFA" opacity="0.2"></path>
                        <rect id="Rectangle-path" fill="#62C479" x="1.94733333" y="23.6008209" width="44" height="3.35820896"></rect>
                    </g>
                    <g id="Group" transform="translate(15.000000, 51.000000)">
                        <g transform="translate(159.845659, 0.000000)">
                            <rect id="Rectangle-path" fill="#62C479" x="0.145800643" y="0.0214925373" width="47.4855305" height="89.3283582"></rect>
                            <rect id="Rectangle-path" fill="#2D4151" x="3.48985209" y="3.37970149" width="40.7974277" height="82.6119403"></rect>
                            <path d="M41.9016334,6.3080597 L41.9016334,83.4857463 L9.79873955,83.4857463 C9.79873955,83.4857463 37.9690289,53.6144776 41.9016334,6.3080597 Z" id="Shape" fill="#FCFAFA" opacity="0.2"></path>
                            <rect id="Rectangle-path" fill="#62C479" x="3" y="24" width="42.9593055" height="2.55134328"></rect>
                        </g>
                        <g>
                            <rect id="Rectangle-path" fill="#62C479" x="0.281569132" y="0.0214925373" width="47.4855305" height="89.3283582"></rect>
                            <rect id="Rectangle-path" fill="#2D4151" x="3.62562058" y="3.37970149" width="40.7974277" height="82.6119403"></rect>
                            <path d="M42.0380707,6.3080597 L42.0380707,83.4857463 L9.93517685,83.4857463 C9.93450804,83.4857463 38.1047974,53.6144776 42.0380707,6.3080597 Z" id="Shape" fill="#FCFAFA" opacity="0.2"></path>
                            <rect id="Rectangle-path" fill="#62C479" x="1.95359486" y="23.1931343" width="44.1414791" height="3.35820896"></rect>
                        </g>
                        <g transform="translate(53.504823, 0.000000)">
                            <rect id="Rectangle-path" fill="#62C479" x="0.0133762058" y="0.0214925373" width="47.4855305" height="89.3283582"></rect>
                            <rect id="Rectangle-path" fill="#2D4151" x="3.35742765" y="3.37970149" width="40.7974277" height="82.6119403"></rect>
                            <path d="M41.769209,6.3080597 L41.769209,83.4857463 L9.66631511,83.4857463 C9.66631511,83.4857463 37.8366045,53.6144776 41.769209,6.3080597 Z" id="Shape" fill="#FCFAFA" opacity="0.2"></path>
                            <rect id="Rectangle-path" fill="#62C479" x="1.68540193" y="23.1931343" width="44.1414791" height="3.35820896"></rect>
                        </g>
                        <g transform="translate(106.340836, 0.000000)">
                            <rect id="Rectangle-path" fill="#62C479" x="0.413993569" y="0.0214925373" width="47.4855305" height="89.3283582"></rect>
                            <rect id="Rectangle-path" fill="#2D4151" x="3.75804502" y="3.37970149" width="40.7974277" height="82.6119403"></rect>
                            <path d="M42.1698264,6.3080597 L42.1698264,83.4857463 L10.0662637,83.4857463 C10.0669325,83.4857463 38.2372219,53.6144776 42.1698264,6.3080597 Z" id="Shape" fill="#FCFAFA" opacity="0.2"></path>
                            <rect id="Rectangle-path" fill="#62C479" x="2.08601929" y="23.1931343" width="44.1414791" height="3.35820896"></rect>
                        </g>
                    </g>
                    <g id="Group" transform="translate(23.000000, 154.000000)">
                        <g transform="translate(161.612457, 0.000000)">
                            <rect id="Rectangle-path" fill="#A67C52" x="12.0013945" y="37.9115887" width="7.34602076" height="35.4758065"></rect>
                            <path d="M15.6744048,51.2986855 C7.19108651,51.2986855 0.314543253,44.4063387 0.314543253,35.9035242 L0.314543253,15.822879 C0.314543253,7.32006452 7.19108651,0.427717742 15.6744048,0.427717742 C24.1577232,0.427717742 31.0342664,7.32006452 31.0342664,15.822879 L31.0342664,35.9035242 C31.0342664,44.4063387 24.1577232,51.2986855 15.6744048,51.2986855 Z" id="Shape" fill="#46CC59"></path>
                            <polygon id="Shape" fill="#D8D4D5" points="21.6627474 82.7583629 9.68606228 82.7583629 7.4835917 63.3470726 23.865218 63.3470726"></polygon>
                        </g>
                        <g>
                            <rect id="Rectangle-path" fill="#A67C52" x="11.799045" y="37.9115887" width="7.34602076" height="35.4758065"></rect>
                            <path d="M15.4720554,51.2986855 C6.98873702,51.2986855 0.112193772,44.4063387 0.112193772,35.9035242 L0.112193772,15.822879 C0.112193772,7.32006452 6.98873702,0.427717742 15.4720554,0.427717742 C23.9553737,0.427717742 30.831917,7.32006452 30.831917,15.822879 L30.831917,35.9035242 C30.831917,44.4063387 23.9553737,51.2986855 15.4720554,51.2986855 Z" id="Shape" fill="#46CC59"></path>
                            <polygon id="Shape" fill="#D8D4D5" points="21.4603979 82.7583629 9.4837128 82.7583629 7.28124221 63.3470726 23.6628685 63.3470726"></polygon>
                        </g>
                    </g>
                    <rect id="Rectangle-path" fill="#D8D4D5" x="113" y="193" width="13" height="18"></rect>
                    <g id="Group" transform="translate(65.000000, 0.000000)">
                        <g>
                            <rect id="Rectangle-path" fill="#E6E6E6" x="1.79348466" y="2.28266667" width="105.170957" height="33.7386667"></rect>
                            <path d="M108.63689,37.688 L0.121705521,37.688 L0.121705521,0.616 L108.63689,0.616 L108.63689,37.688 Z M3.4652638,34.3546667 L105.292663,34.3546667 L105.292663,3.94933333 L3.4652638,3.94933333 L3.4652638,34.3546667 Z" id="Shape" fill="#F9C032"></path>
                        </g>
                    </g>
                    <rect id="Rectangle-path" fill="#76DD91" x="0" y="38" width="238" height="6"></rect>
                    <rect id="Rectangle-path" fill="#62C479" x="7" y="44" width="225" height="3"></rect>
                </g>
                <text id="Disco" font-family="PermanentMarker-Regular, Permanent Marker" font-size="24" font-weight="normal" letter-spacing="0.05345452" fill="#2D4151">
                    <tspan x="90" y="27">Disco</tspan>
                </text>
            </g>
        </g>
    </g>
</svg>