<?xml version="1.0" encoding="UTF-8"?>
<svg width="100pt" height="100pt" version="1.1" viewBox="0 0 100 100" xmlns="http://www.w3.org/2000/svg">
 <g>
  <path d="m59.375 65.625h-18.75c-0.86328 0-1.5625 0.69922-1.5625 1.5625v6.25c0 0.86328 0.69922 1.5625 1.5625 1.5625h7.8125v18.75h-3.125c-0.86328 0-1.5625 0.69922-1.5625 1.5625s0.69922 1.5625 1.5625 1.5625h9.375c0.86328 0 1.5625-0.69922 1.5625-1.5625s-0.69922-1.5625-1.5625-1.5625h-3.125v-18.75h7.8125c0.86328 0 1.5625-0.69922 1.5625-1.5625v-6.25c0-0.86328-0.69922-1.5625-1.5625-1.5625zm-1.5625 6.25h-15.625v-3.125h15.625z"/>
  <path d="m87.5 65.625h-18.75c-0.86328 0-1.5625 0.69922-1.5625 1.5625v6.25c0 0.86328 0.69922 1.5625 1.5625 1.5625h7.8125v18.75h-3.125c-0.86328 0-1.5625 0.69922-1.5625 1.5625s0.69922 1.5625 1.5625 1.5625h9.375c0.86328 0 1.5625-0.69922 1.5625-1.5625s-0.69922-1.5625-1.5625-1.5625h-3.125v-18.75h7.8125c0.86328 0 1.5625-0.69922 1.5625-1.5625v-6.25c0-0.86328-0.69922-1.5625-1.5625-1.5625zm-1.5625 6.25h-15.625v-3.125h15.625z"/>
  <path d="m31.25 65.625h-18.75c-0.86328 0-1.5625 0.69922-1.5625 1.5625v6.25c0 0.86328 0.69922 1.5625 1.5625 1.5625h7.8125v18.75h-3.125c-0.86328 0-1.5625 0.69922-1.5625 1.5625s0.69922 1.5625 1.5625 1.5625h9.375c0.86328 0 1.5625-0.69922 1.5625-1.5625s-0.69922-1.5625-1.5625-1.5625h-3.125v-18.75h7.8125c0.86328 0 1.5625-0.69922 1.5625-1.5625v-6.25c0-0.86328-0.69922-1.5625-1.5625-1.5625zm-1.5625 6.25h-15.625v-3.125h15.625z"/>
  <path d="m67.188 57.812h3.125v3.125h-3.125z"/>
  <path d="m15.625 15.625h3.125v3.125h-3.125z"/>
  <path d="m34.375 15.625h3.125v3.125h-3.125z"/>
  <path d="m95.312 51.562h-60.938v-2.4766l5.793-5.793c0.44531-0.44531 0.58203-1.1172 0.33984-1.7031-0.24219-0.58594-0.8125-0.96484-1.4453-0.96484h-12.5c-0.63281 0-1.2031 0.37891-1.4453 0.96484-0.24219 0.58594-0.10938 1.2578 0.33984 1.7031l5.793 5.793v2.4766h-26.562c-0.86328 0-1.5625 0.69922-1.5625 1.5625v6.25c0 0.86328 0.69922 1.5625 1.5625 1.5625v35.938h3.125v-35.938h56.25v-3.125h-57.812v-3.125h87.5v3.125h-20.312v3.125h18.75v35.938h3.125v-35.938c0.86328 0 1.5625-0.69922 1.5625-1.5625v-6.25c0-0.86328-0.69922-1.5625-1.5625-1.5625zm-60.023-7.8125-2.4766 2.4766-2.4766-2.4766z"/>
  <path d="m95.312 17.188h-3.125c0.86328 0 1.5625-0.69922 1.5625-1.5625s-0.69922-1.5625-1.5625-1.5625h-3.125c-0.86328 0-1.5625 0.69922-1.5625 1.5625s0.69922 1.5625 1.5625 1.5625h-12.5c0.86328 0 1.5625-0.69922 1.5625-1.5625s-0.69922-1.5625-1.5625-1.5625h-3.125c-0.86328 0-1.5625 0.69922-1.5625 1.5625s0.69922 1.5625 1.5625 1.5625h-12.5c0.86328 0 1.5625-0.69922 1.5625-1.5625s-0.69922-1.5625-1.5625-1.5625h-3.125c-0.86328 0-1.5625 0.69922-1.5625 1.5625s0.69922 1.5625 1.5625 1.5625h-4.6875c-0.86328 0-1.5625 0.69922-1.5625 1.5625s0.69922 1.5625 1.5625 1.5625h4.6875v3.4023c-2.6875 0.875-4.6875 3.9062-4.6875 7.5352 0 0.51953 0.16797 5.4766 0.78125 6.875 0.25 0.57031 0.8125 0.9375 1.4336 0.9375h8.0742c0.62109 0 1.1836-0.36719 1.4336-0.9375 0.60938-1.3984 0.77734-6.3555 0.77734-6.875 0-3.6289-2-6.6602-4.6875-7.5352v-3.4023h12.5v3.4023c-2.6875 0.875-4.6875 3.9062-4.6875 7.5352 0 0.51953 0.16797 5.4766 0.78125 6.875 0.25 0.57031 0.8125 0.9375 1.4336 0.9375h8.0742c0.62109 0 1.1836-0.36719 1.4336-0.9375 0.60938-1.3984 0.77734-6.3555 0.77734-6.875 0-3.6289-2-6.6602-4.6875-7.5352v-3.4023h12.5v3.4023c-2.6875 0.875-4.6875 3.9062-4.6875 7.5352 0 0.51953 0.16797 5.4766 0.78125 6.875 0.25 0.57031 0.8125 0.9375 1.4336 0.9375h8.0742c0.62109 0 1.1836-0.36719 1.4336-0.9375 0.60938-1.3984 0.77734-6.3555 0.77734-6.875 0-3.6289-2-6.6602-4.6875-7.5352v-3.4023h4.6875v-3.125zm-32.812 14.062c0 1.0742-0.16016 3.3477-0.34375 4.6875h-5.5664c-0.17969-1.3398-0.33984-3.6133-0.33984-4.6875 0-2.5391 1.4297-4.6875 3.125-4.6875s3.125 2.1484 3.125 4.6875zm15.625 0c0 1.0742-0.16016 3.3477-0.34375 4.6875h-5.5664c-0.17969-1.3398-0.33984-3.6133-0.33984-4.6875 0-2.5391 1.4297-4.6875 3.125-4.6875s3.125 2.1484 3.125 4.6875zm15.625 0c0 1.0742-0.16016 3.3477-0.34375 4.6875h-5.5664c-0.17969-1.3398-0.33984-3.6133-0.33984-4.6875 0-2.5391 1.4297-4.6875 3.125-4.6875s3.125 2.1484 3.125 4.6875z"/>
  <path d="m20.312 31.25h26.562v-3.125h-3.4141c0.17578-0.49219 0.28906-1.0117 0.28906-1.5625v-12.5c0-2.0352-1.3125-3.7539-3.125-4.3984v-4.9766c0-0.86328-0.69922-1.5625-1.5625-1.5625h-6.25c-0.86328 0-1.5625 0.69922-1.5625 1.5625v4.9766c-1.8125 0.64453-3.125 2.3633-3.125 4.3984v12.5c0 0.55078 0.11328 1.0703 0.28906 1.5625h-3.7031c0.17578-0.49219 0.28906-1.0117 0.28906-1.5625v-12.5c0-2.0352-1.3125-3.7539-3.125-4.3984v-4.9766c0-0.86328-0.69922-1.5625-1.5625-1.5625h-6.25c-0.86328 0-1.5625 0.69922-1.5625 1.5625v4.9766c-1.8125 0.64453-3.125 2.3633-3.125 4.3984v12.5c0 0.55078 0.11328 1.0703 0.28906 1.5625h-3.4141v3.125zm14.062-25h3.125v3.125h-3.125zm-3.125 20.312v-12.5c0-0.86328 0.69922-1.5625 1.5625-1.5625h6.25c0.86328 0 1.5625 0.69922 1.5625 1.5625v12.5c0 0.86328-0.69922 1.5625-1.5625 1.5625h-6.25c-0.86328 0-1.5625-0.69922-1.5625-1.5625zm-15.625-20.312h3.125v3.125h-3.125zm-3.125 20.312v-12.5c0-0.86328 0.69922-1.5625 1.5625-1.5625h6.25c0.86328 0 1.5625 0.69922 1.5625 1.5625v12.5c0 0.86328-0.69922 1.5625-1.5625 1.5625h-6.25c-0.86328 0-1.5625-0.69922-1.5625-1.5625z"/>
 </g>
</svg>
