<?xml version="1.0" encoding="UTF-8"?>
<svg width="100pt" height="100pt" version="1.1" viewBox="0 0 100 100" xmlns="http://www.w3.org/2000/svg">
 <g>
  <path d="m34.199 79.664c-1.0898 0-1.9805-0.88672-1.9805-1.9805l0.003906-22.562c0-1.0938 0.88672-1.9805 1.9805-1.9805s1.9805 0.89062 1.9805 1.9805v22.562c-0.003906 1.0938-0.89062 1.9805-1.9844 1.9805z"/>
  <path d="m46.273 79.664c-1.0938 0-1.9805-0.88672-1.9805-1.9805v-22.562c0-1.0938 0.88672-1.9805 1.9805-1.9805 1.0898 0 1.9805 0.89062 1.9805 1.9805v22.562c-0.003906 1.0938-0.89062 1.9805-1.9805 1.9805z"/>
  <path d="m58.344 79.664c-1.0898 0-1.9805-0.88672-1.9805-1.9805v-22.562c0-1.0938 0.89062-1.9805 1.9805-1.9805 1.0938 0 1.9805 0.89062 1.9805 1.9805v22.562c-0.003907 1.0938-0.89062 1.9805-1.9805 1.9805z"/>
  <path d="m30.992 89.977c-5.1016 0-9.2539-4.1523-9.2539-9.2539v-42.75c-3.4883-2.0508-5.6484-5.6797-5.6484-9.5234 0-6.1992 5.3594-11.242 11.945-11.242 0.35547 0 0.71875 0.015625 1.0781 0.042969 3.1055-5.4453 9.0352-8.8125 15.539-8.8125 6.6562 0 12.641 3.4766 15.688 9.0898 1.043-0.21484 2.1094-0.32031 3.1797-0.32031 7.5547 0 13.699 5.2344 13.699 11.668 0 3.8984-2.2656 7.4961-6.0703 9.6797v4.8945h5.0977c4.4805 0 8.1328 3.7891 8.1328 8.4492v12.973c0 4.6562-3.6484 8.4492-8.1328 8.4492h-5.0977v7.4102c0 5.1016-4.1484 9.2539-9.2539 9.2539zm-5.293-9.2539c0 2.918 2.375 5.293 5.293 5.293h30.906c2.918 0 5.293-2.375 5.293-5.293v-40.617c-1.1992 0.28516-2.4336 0.43359-3.6719 0.43359-0.33984 0-0.67969-0.011718-1.0195-0.035156v2.9102c0 4.5586-3.1641 8.2695-7.0547 8.2695h-0.28125c-3.8906 0-7.0547-3.7109-7.0547-8.2695v-1.5117c-1.1406 0.22266-2.3008 0.33203-3.4531 0.33203-4.0508 0-7.9922-1.3398-11.133-3.7734-1.6758 0.80469-3.5508 1.2266-5.4453 1.2266-0.77734 0-1.5742-0.078125-2.375-0.23438zm50.551-11.371c2.3008 0 4.1719-2.0156 4.1719-4.4883v-12.973c0-2.4766-1.8672-4.4883-4.1719-4.4883h-5.0977v2.1367h3.1992c1.8438 0 3.2852 1.4336 3.2852 3.2656v11.148c0 1.8281-1.4414 3.2617-3.2852 3.2617h-3.1992v2.1406zm-2.5703-6.0977v-9.7578h-2.5273v9.7578zm-21.613-19.84c0 2.3359 1.418 4.3125 3.0977 4.3125h0.28125c1.6797 0 3.0977-1.9727 3.0977-4.3125v-7.6484l2.4023 0.52734c0.87109 0.1875 1.7383 0.28516 2.5742 0.28516 5.3711 0 9.7422-3.457 9.7422-7.707s-4.3711-7.707-9.7422-7.707c-1.2422 0-2.4688 0.19141-3.6484 0.57422l-1.7305 0.55859-0.69922-1.6797c-2.082-4.9922-7.1016-8.2188-12.785-8.2188-5.4922 0-10.449 3.0742-12.621 7.832l-0.65625 1.4297-1.5391-0.30859c-0.59766-0.12109-1.207-0.18359-1.8047-0.18359-4.4023 0-7.9844 3.2695-7.9844 7.2852 0 4.0195 3.6016 7.2852 8.0234 7.2852 1.6602 0 3.2539-0.45703 4.6094-1.3281l1.2812-0.82031 1.1211 1.0273c2.5859 2.3633 5.9805 3.668 9.5664 3.668 1.6133 0 3.2227-0.27734 4.7773-0.82031l2.6328-0.92188z"/>
 </g>
</svg>
