<?xml version="1.0" encoding="UTF-8"?>
<svg width="99px" height="169px" viewBox="0 0 99 169" version="1.1" xmlns="http://www.w3.org/2000/svg" xmlns:xlink="http://www.w3.org/1999/xlink">
    <!-- Generator: Sketch 52.3 (67297) - http://www.bohemiancoding.com/sketch -->
    <title>Artboard</title>
    <desc>Created with Sketch.</desc>
    <defs>
        <linearGradient x1="59.7402597%" y1="88.2187938%" x2="40.1875902%" y2="22.5806452%" id="linearGradient-1">
            <stop stop-color="#FFFFFF" stop-opacity="0" offset="0%"></stop>
            <stop stop-color="#E8E8E9" stop-opacity="0.34" offset="27%"></stop>
            <stop stop-color="#D4D6D7" stop-opacity="0.63" offset="51%"></stop>
            <stop stop-color="#C7C8CA" stop-opacity="0.83" offset="73%"></stop>
            <stop stop-color="#BEC0C2" stop-opacity="0.95" offset="90%"></stop>
            <stop stop-color="#BBBDBF" offset="100%"></stop>
        </linearGradient>
    </defs>
    <g id="Artboard" stroke="none" stroke-width="1" fill="none" fill-rule="evenodd">
        <g id="Behoerde" fill-rule="nonzero">
            <g id="Element-28" transform="translate(0.000000, 37.000000)">
                <g id="_Gruppe_3" transform="translate(0.000000, 40.000000)">
                    <g id="_Gruppe_4" transform="translate(0.000000, 32.000000)" fill="#9E5D26">
                        <g id="_Gruppe_5">
                            <g id="_Gruppe_6">
                                <polygon id="_Pfad_" points="0 0.5 0 2.4 2.55 3.86 2.55 1.96"></polygon>
                            </g>
                        </g>
                    </g>
                    <polygon id="_Pfad_2" fill="#C77F42" points="58.7 1.52 56.18 0.06 0 32.5 2.55 33.96"></polygon>
                </g>
                <g id="_Gruppe_7" transform="translate(0.000000, 36.000000)">
                    <g id="_Gruppe_8" transform="translate(0.000000, 33.000000)" fill="#9E5D26">
                        <g id="_Gruppe_9">
                            <g id="_Gruppe_10">
                                <polygon id="_Pfad_3" points="0 0.01 0 1.91 2.55 3.36 2.55 1.47"></polygon>
                            </g>
                        </g>
                    </g>
                    <polygon id="_Pfad_4" fill="#C77F42" points="58.7 2.03 56.18 0.57 0 33.01 2.55 34.47"></polygon>
                </g>
                <g id="_Gruppe_11" transform="translate(55.000000, 41.000000)" fill="#C77F42">
                    <polygon id="_Pfad_5" points="0.96 1.85 3.49 0.38 41.27 22.21 38.72 23.66"></polygon>
                </g>
                <g id="_Gruppe_12" transform="translate(55.000000, 37.000000)" fill="#C77F42">
                    <polygon id="_Pfad_6" points="0.96 2.35 3.49 0.88 41.27 22.7 38.72 24.16"></polygon>
                </g>
                <g id="_Gruppe_13">
                    <g id="_Gruppe_14" transform="translate(5.000000, 9.000000)">
                        <g id="_Gruppe_15" transform="translate(37.000000, 22.000000)" fill="#CFCFE3">
                            <g id="_Gruppe_16">
                                <g id="_Gruppe_17">
                                    <polygon id="_Pfad_7" points="51.72 0.4 51.72 71.47 0.61 101 0.61 29.91"></polygon>
                                </g>
                            </g>
                        </g>
                        <g id="_Gruppe_18" transform="translate(0.000000, 30.000000)" fill="#EDEDED">
                            <g id="_Gruppe_19">
                                <g id="_Gruppe_20">
                                    <polygon id="_Pfad_8" points="37.61 21.9 37.61 93 23.33 84.74 23.33 83.15 14.82 78.24 13.45 79.03 0.06 71.29 0.06 0.23"></polygon>
                                </g>
                            </g>
                        </g>
                        <polygon id="_Pfad_9" fill="#B0CC38" points="0.06 30.23 51.19 0.73 88.72 22.4 37.61 51.91"></polygon>
                    </g>
                    <g id="_Gruppe_21">
                        <polygon id="_Pfad_10" fill="#9E5D26" points="53.77 7.62 89.5 28.25 89.5 24.49 53.77 3.86"></polygon>
                        <polygon id="_Pfad_11" fill="#642D10" points="53.77 3.86 53.77 7.62 3.67 36.55 3.67 32.79"></polygon>
                        <g id="_Gruppe_22" transform="translate(42.000000, 24.000000)" fill="#642D10">
                            <g id="_Gruppe_23">
                                <g id="_Gruppe_24">
                                    <polygon id="_Pfad_12" points="53.87 0.32 53.87 6.15 0.61 36.91 0.61 31.07"></polygon>
                                </g>
                            </g>
                        </g>
                        <g id="_Gruppe_25" transform="translate(0.000000, 30.000000)" fill="#9E5D26">
                            <g id="_Gruppe_26">
                                <g id="_Gruppe_27">
                                    <polygon id="_Pfad_13" points="0.47 0.74 0.48 6.57 42.61 30.91 42.61 25.07"></polygon>
                                </g>
                            </g>
                        </g>
                        <path d="M53.75,0 L0.47,30.74 L42.61,55.07 L95.87,24.32 L53.75,0 Z M6.93,30.91 L53.77,3.91 L89.5,24.49 L42.65,51.54 L6.93,30.91 Z" id="_Zusammengesetzter_Pfad_" fill="#C77F42"></path>
                        <polygon id="_Pfad_14" fill="#5D635C" points="53.77 7.62 10.18 32.79 42.65 51.54 86.24 26.37"></polygon>
                    </g>
                    <polygon id="_Pfad_15" fill="#767D74" points="53.78 11.42 16.75 32.8 42.64 47.74 79.67 26.36"></polygon>
                    <polygon id="_Pfad_16" fill="#D6B982" points="28.33 123.74 28.33 122.15 19.82 117.24 18.46 118.03 5.07 110.3 5.06 76.64 42.61 98.15 42.61 131.99"></polygon>
                    <polygon id="_Pfad_17" fill="#C1A574" points="42.61 132 42.61 98.15 93.72 68.94 93.72 102.47"></polygon>
                </g>
                <g id="_Gruppe_28" transform="translate(12.000000, 49.000000)">
                    <g id="_Gruppe_29" transform="translate(15.000000, 9.000000)">
                        <g id="_Gruppe_30">
                            <g id="_Gruppe_31" fill="#40404A">
                                <g id="_Gruppe_32">
                                    <g id="_Gruppe_33">
                                        <polygon id="_Pfad_18" points="0.07 0.83 0.07 17.34 6.48 21.04 6.48 4.53"></polygon>
                                    </g>
                                </g>
                            </g>
                            <g id="_Gruppe_34" transform="translate(6.000000, 3.000000)" fill="#292930">
                                <g id="_Gruppe_35">
                                    <g id="_Gruppe_36">
                                        <polygon id="_Pfad_19" points="1.88 0.73 1.88 17.23 0.48 18.04 0.48 1.53"></polygon>
                                    </g>
                                </g>
                            </g>
                            <polygon id="_Pfad_20" fill="#616170" points="7.88 3.73 1.47 0.02 0.07 0.83 6.48 4.53"></polygon>
                        </g>
                        <g id="_Gruppe_37" transform="translate(0.000000, 2.000000)" fill="#D8E0E8">
                            <g id="_Gruppe_38">
                                <g id="_Gruppe_39">
                                    <polygon id="_Pfad_21" points="0.89 0.27 0.89 6.94 5.65 9.69 5.65 3.02"></polygon>
                                </g>
                            </g>
                        </g>
                        <g id="_Gruppe_40" transform="translate(0.000000, 10.000000)" fill="#D8E0E8">
                            <g id="_Gruppe_41">
                                <g id="_Gruppe_42">
                                    <polygon id="_Pfad_22" points="0.89 0.18 0.89 6.85 5.65 9.59 5.65 2.93"></polygon>
                                </g>
                            </g>
                        </g>
                    </g>
                    <g id="_Gruppe_43">
                        <g id="_Gruppe_44">
                            <g id="_Gruppe_45" transform="translate(0.000000, 1.000000)" fill="#40404A">
                                <g id="_Gruppe_46">
                                    <g id="_Gruppe_47">
                                        <polygon id="_Pfad_23" points="0.94 0.67 0.94 17.18 7.34 20.88 7.34 4.37"></polygon>
                                    </g>
                                </g>
                            </g>
                            <g id="_Gruppe_48" transform="translate(7.000000, 4.000000)" fill="#292930">
                                <g id="_Gruppe_49">
                                    <g id="_Gruppe_50">
                                        <polygon id="_Pfad_24" points="1.74 0.56 1.74 17.07 0.34 17.88 0.34 1.37"></polygon>
                                    </g>
                                </g>
                            </g>
                            <polygon id="_Pfad_25" fill="#616170" points="8.74 4.56 2.33 0.86 0.94 1.67 7.34 5.37"></polygon>
                        </g>
                        <g id="_Gruppe_51" transform="translate(1.000000, 3.000000)" fill="#D8E0E8">
                            <g id="_Gruppe_52">
                                <g id="_Gruppe_53">
                                    <polygon id="_Pfad_26" points="0.76 0.11 0.76 6.78 5.52 9.52 5.52 2.86"></polygon>
                                </g>
                            </g>
                        </g>
                        <g id="_Gruppe_54" transform="translate(1.000000, 11.000000)" fill="#D8E0E8">
                            <g id="_Gruppe_55">
                                <g id="_Gruppe_56">
                                    <polygon id="_Pfad_27" points="0.76 0.02 0.76 6.69 5.52 9.43 5.52 2.77"></polygon>
                                </g>
                            </g>
                        </g>
                    </g>
                </g>
                <g id="_Gruppe_57" transform="translate(2.000000, 63.000000)">
                    <g id="_Gruppe_58" transform="translate(0.000000, 9.000000)">
                        <g id="_Gruppe_59" transform="translate(0.000000, 1.000000)" fill="#9E5D26">
                            <g id="_Gruppe_60">
                                <g id="_Gruppe_61">
                                    <polygon id="_Pfad_28" points="0.53 0.95 0.53 2.85 38.06 24.53 38.06 22.64"></polygon>
                                </g>
                            </g>
                        </g>
                        <polygon id="_Pfad_29" fill="#C77F42" points="0.53 1.95 3.06 0.49 40.61 22.18 38.06 23.64"></polygon>
                    </g>
                    <g id="_Gruppe_62" transform="translate(38.000000, 0.000000)">
                        <g id="_Gruppe_63" transform="translate(0.000000, 32.000000)" fill="#9E5D26">
                            <g id="_Gruppe_64">
                                <g id="_Gruppe_65">
                                    <polygon id="_Pfad_30" points="0.06 0.64 0.06 2.53 2.61 3.99 2.61 2.09"></polygon>
                                </g>
                            </g>
                        </g>
                        <g id="_Gruppe_66" transform="translate(2.000000, 1.000000)" fill="#642D10">
                            <g id="_Gruppe_67">
                                <g id="_Gruppe_68">
                                    <polygon id="_Pfad_31" points="56.77 0.65 56.77 2.55 0.61 34.99 0.61 33.09"></polygon>
                                </g>
                            </g>
                        </g>
                        <polygon id="_Pfad_32" fill="#C77F42" points="58.77 1.65 56.24 0.19 0.06 32.64 2.61 34.09"></polygon>
                    </g>
                </g>
                <g id="_Gruppe_69" transform="translate(2.000000, 59.000000)">
                    <g id="_Gruppe_70" transform="translate(0.000000, 10.000000)">
                        <g id="_Gruppe_71" transform="translate(0.000000, 1.000000)" fill="#9E5D26">
                            <g id="_Gruppe_72">
                                <g id="_Gruppe_73">
                                    <polygon id="_Pfad_33" points="0.53 0.46 0.53 2.35 38.06 24.04 38.06 22.14"></polygon>
                                </g>
                            </g>
                        </g>
                        <polygon id="_Pfad_34" fill="#C77F42" points="0.53 1.46 3.06 0 40.61 21.69 38.06 23.14"></polygon>
                    </g>
                    <g id="_Gruppe_74" transform="translate(38.000000, 0.000000)">
                        <g id="_Gruppe_75" transform="translate(0.000000, 33.000000)" fill="#9E5D26">
                            <g id="_Gruppe_76">
                                <g id="_Gruppe_77">
                                    <polygon id="_Pfad_35" points="0.06 0.14 0.06 2.03 2.61 3.49 2.61 1.59"></polygon>
                                </g>
                            </g>
                        </g>
                        <g id="_Gruppe_78" transform="translate(2.000000, 2.000000)" fill="#642D10">
                            <g id="_Gruppe_79">
                                <g id="_Gruppe_80">
                                    <polygon id="_Pfad_36" points="56.77 0.16 56.77 2.05 0.61 34.49 0.61 32.59"></polygon>
                                </g>
                            </g>
                        </g>
                        <polygon id="_Pfad_37" fill="#C77F42" points="58.77 2.16 56.24 0.69 0.06 33.14 2.61 34.59"></polygon>
                    </g>
                </g>
                <g id="_Gruppe_81" transform="translate(6.000000, 85.000000)">
                    <g id="_Gruppe_82">
                        <g id="_Gruppe_83">
                            <g id="_Gruppe_84">
                                <g id="_Gruppe_85" fill="#D8E0E8">
                                    <g id="_Gruppe_86">
                                        <g id="_Gruppe_87">
                                            <polygon id="_Pfad_38" points="0.56 0.11 0.56 16.62 10.83 22.55 10.83 6.04"></polygon>
                                        </g>
                                    </g>
                                </g>
                                <g id="_Gruppe_88" fill="#B3B3D4">
                                    <g id="_Gruppe_89">
                                        <g id="_Gruppe_90">
                                            <polygon id="_Pfad_39" points="1.96 0.92 1.96 15.81 0.56 16.62 0.56 0.11"></polygon>
                                        </g>
                                    </g>
                                </g>
                            </g>
                        </g>
                    </g>
                    <polygon id="_Pfad_40" fill="#FFFFFF" points="0.56 16.62 1.96 15.81 10.83 20.93 10.83 22.55"></polygon>
                </g>
                <g id="_Gruppe_91" transform="translate(30.000000, 98.000000)">
                    <g id="_Gruppe_92">
                        <g id="_Gruppe_93">
                            <g id="_Gruppe_94">
                                <g id="_Gruppe_95" fill="#D8E0E8">
                                    <g id="_Gruppe_96">
                                        <g id="_Gruppe_97">
                                            <polygon id="_Pfad_41" points="0.25 0.79 0.25 17.3 10.51 23.22 10.51 6.71"></polygon>
                                        </g>
                                    </g>
                                </g>
                                <g id="_Gruppe_98" fill="#B3B3D4">
                                    <g id="_Gruppe_99">
                                        <g id="_Gruppe_100">
                                            <polygon id="_Pfad_42" points="1.64 1.59 1.64 16.49 0.25 17.3 0.25 0.79"></polygon>
                                        </g>
                                    </g>
                                </g>
                            </g>
                        </g>
                    </g>
                    <polygon id="_Pfad_43" fill="#FFFFFF" points="0.25 17.3 1.64 16.49 10.51 21.61 10.51 23.22"></polygon>
                </g>
                <g id="_Gruppe_101" transform="translate(49.000000, 80.000000)">
                    <g id="_Gruppe_102">
                        <g id="_Gruppe_103">
                            <g id="_Gruppe_104">
                                <g id="_Gruppe_105" fill="#D8E0E8">
                                    <g id="_Gruppe_106">
                                        <g id="_Gruppe_107">
                                            <polygon id="_Pfad_44" points="38.98 0.3 38.98 16.81 0.23 39.19 0.23 22.67"></polygon>
                                        </g>
                                    </g>
                                </g>
                                <g id="_Gruppe_108" transform="translate(37.000000, 0.000000)" fill="#B3B3D4">
                                    <g id="_Gruppe_109">
                                        <g id="_Gruppe_110">
                                            <polygon id="_Pfad_45" points="0.58 1.11 0.59 16 1.98 16.81 1.98 0.3"></polygon>
                                        </g>
                                    </g>
                                </g>
                            </g>
                        </g>
                    </g>
                    <polygon id="_Pfad_46" fill="#FFFFFF" points="38.98 16.81 37.59 16 0.23 37.57 0.23 39.19"></polygon>
                </g>
                <g id="_Gruppe_111" transform="translate(76.000000, 37.000000)">
                    <g id="_Gruppe_112">
                        <g id="_Gruppe_113" transform="translate(5.000000, 3.000000)" fill="#E3E3ED">
                            <g id="_Gruppe_114">
                                <g id="_Gruppe_115">
                                    <polygon id="_Pfad_47" points="10.71 0.49 10.71 8.12 0.68 14.08 0.68 6.45"></polygon>
                                </g>
                            </g>
                        </g>
                        <g id="_Gruppe_116" transform="translate(0.000000, 6.000000)" fill="#BABAE3">
                            <g id="_Gruppe_117">
                                <g id="_Gruppe_118">
                                    <polygon id="_Pfad_48" points="0.63 0.53 0.63 8.16 5.68 11.08 5.68 3.45"></polygon>
                                </g>
                            </g>
                        </g>
                        <polygon id="_Pfad_49" fill="#F6F6F7" points="0.63 6.53 10.66 0.58 15.71 3.49 5.68 9.45"></polygon>
                    </g>
                    <g id="_Gruppe_119" transform="translate(9.000000, 6.000000)" fill="#A0A0B0">
                        <path d="M3.35,1 C4.71,0.22 5.81,0.85 5.81,2.41 C5.71793945,4.13367782 4.8073958,5.7094758 3.36,6.65 C2.01,7.43 0.91,6.8 0.9,5.24 C0.993659867,3.51679751 1.90381468,1.94167245 3.35,1 Z" id="_Pfad_50"></path>
                    </g>
                </g>
                <g id="_Gruppe_120" transform="translate(64.000000, 44.000000)">
                    <g id="_Gruppe_121">
                        <g id="_Gruppe_122" transform="translate(5.000000, 3.000000)" fill="#E3E3ED">
                            <g id="_Gruppe_123">
                                <g id="_Gruppe_124">
                                    <polygon id="_Pfad_51" points="10.95 0.28 10.95 7.91 0.92 13.87 0.92 6.23"></polygon>
                                </g>
                            </g>
                        </g>
                        <g id="_Gruppe_125" transform="translate(0.000000, 6.000000)" fill="#BABAE3">
                            <g id="_Gruppe_126">
                                <g id="_Gruppe_127">
                                    <polygon id="_Pfad_52" points="0.88 0.32 0.88 7.95 5.92 10.87 5.92 3.23"></polygon>
                                </g>
                            </g>
                        </g>
                        <polygon id="_Pfad_53" fill="#F6F6F7" points="0.88 6.32 10.9 0.37 15.95 3.28 5.92 9.23"></polygon>
                    </g>
                    <g id="_Gruppe_128" transform="translate(10.000000, 6.000000)" fill="#A0A0B0">
                        <path d="M2.59,0.74 C3.95,-0.04 5.05,0.59 5.06,2.14 C4.96474824,3.86272855 4.05497975,5.43718503 2.61,6.38 C1.25,7.17 0.15,6.54 0.15,4.98 C0.236586672,3.25723328 1.14398005,1.68045134 2.59,0.74 Z" id="_Pfad_54"></path>
                    </g>
                </g>
                <g id="_Gruppe_129" transform="translate(61.000000, 17.000000)">
                    <g id="_Gruppe_130">
                        <polygon id="_Pfad_55" fill="#D2D2DB" points="8.69 4.41 13.74 7.32 13.74 5.38 8.69 2.46"></polygon>
                        <polygon id="_Pfad_56" fill="#B6B6D1" points="8.69 2.46 8.69 4.41 1.95 8.3 1.95 6.35"></polygon>
                        <g id="_Gruppe_131" transform="translate(8.000000, 5.000000)" fill="#B6B6D1">
                            <g id="_Gruppe_132">
                                <g id="_Gruppe_133">
                                    <polygon id="_Pfad_57" points="9.03 0.29 9.03 3.31 0.67 8.15 0.67 5.12"></polygon>
                                </g>
                            </g>
                        </g>
                        <g id="_Gruppe_134" transform="translate(0.000000, 5.000000)" fill="#D2D2DB">
                            <g id="_Gruppe_135">
                                <g id="_Gruppe_136">
                                    <polygon id="_Pfad_58" points="0.3 0.29 0.3 3.31 8.67 8.15 8.67 5.12"></polygon>
                                </g>
                            </g>
                        </g>
                        <path d="M8.67,0.47 L0.3,5.29 L8.67,10.12 L17,5.29 L8.67,0.47 Z M3.67,5.38 L8.67,2.46 L13.67,5.38 L8.67,8.3 L3.67,5.38 Z" id="_Zusammengesetzter_Pfad_2" fill="#F1F1F2"></path>
                        <polygon id="_Pfad_59" fill="#A2A2BA" points="8.69 4.41 5.32 6.35 8.69 8.3 12.06 6.35"></polygon>
                    </g>
                    <polygon id="_Pfad_60" fill="url(#linearGradient-1)" style="mix-blend-mode: multiply;" points="17.03 8.31 8.67 13.15 15.48 15.44 22.53 11.38"></polygon>
                </g>
                <g id="_Gruppe_137" transform="translate(18.000000, 91.000000)">
                    <g id="_Gruppe_138">
                        <g id="_Gruppe_139">
                            <g id="_Gruppe_140">
                                <g id="_Gruppe_141">
                                    <g id="_Gruppe_142" fill="#9E5D26">
                                        <g id="_Gruppe_143">
                                            <g id="_Gruppe_144">
                                                <polygon id="_Pfad_61" points="10.33 6.62 10.33 31.15 1.82 26.24 0.43 27.05 0.42 27.05 0.42 27.05 0.43 0.91"></polygon>
                                            </g>
                                        </g>
                                    </g>
                                    <g id="_Gruppe_145" fill="#642D10">
                                        <g id="_Gruppe_146">
                                            <g id="_Gruppe_147">
                                                <polygon id="_Pfad_62" points="1.82 1.71 1.82 26.24 0.43 27.05 0.43 0.91"></polygon>
                                            </g>
                                        </g>
                                    </g>
                                </g>
                            </g>
                        </g>
                    </g>
                    <g id="_Gruppe_148" transform="translate(2.000000, 3.000000)">
                        <g id="_Gruppe_149">
                            <g id="_Gruppe_150">
                                <g id="_Gruppe_151">
                                    <g id="_Gruppe_152" fill="#D8E0E8">
                                        <g id="_Gruppe_153">
                                            <g id="_Gruppe_154">
                                                <polygon id="_Pfad_63" points="0.64 0.35 0.64 15.84 7.38 19.73 7.38 4.24"></polygon>
                                            </g>
                                        </g>
                                    </g>
                                    <g id="_Gruppe_155" fill="#B3B3D4">
                                        <g id="_Gruppe_156">
                                            <g id="_Gruppe_157">
                                                <polygon id="_Pfad_64" points="1.36 0.77 1.36 15.41 0.64 15.84 0.64 0.35"></polygon>
                                            </g>
                                        </g>
                                    </g>
                                </g>
                            </g>
                        </g>
                        <polygon id="_Pfad_65" fill="#FFFFFF" points="0.64 15.84 1.36 15.41 7.38 18.89 7.38 19.73"></polygon>
                    </g>
                </g>
            </g>
            <rect id="Rectangle" stroke-opacity="0" stroke="#FFFFFF" x="0.5" y="0.5" width="98" height="168"></rect>
        </g>
    </g>
</svg>