<svg xmlns="http://www.w3.org/2000/svg" xmlns:xlink="http://www.w3.org/1999/xlink" viewBox="0 0 102.41 168.1"><defs><style>.cls-1{isolation:isolate;}.cls-2{fill:#b6b6d1;}.cls-3{fill:#d2d2db;}.cls-4{fill:#616170;}.cls-5{fill:#40404a;}.cls-6{fill:#754c28;}.cls-7{fill:#8a5d3b;}.cls-8{fill:#292930;}.cls-9{fill:#727a71;}.cls-10{fill:#7f877d;}.cls-11,.cls-12,.cls-25,.cls-29{mix-blend-mode:multiply;}.cls-11{fill:url(#linear-gradient);}.cls-12{opacity:0.6;}.cls-13{fill:url(#linear-gradient-2);}.cls-14{fill:url(#linear-gradient-3);}.cls-15{fill:#faaf40;}.cls-16{fill:#e68a1b;}.cls-17{fill:#c47517;}.cls-18{fill:#fac370;}.cls-19{fill:#d8e0e8;}.cls-20{fill:#ebebff;}.cls-21{fill:#1c1c1c;}.cls-22{fill:#424242;}.cls-23{fill:#f1f1f2;}.cls-24{fill:#a2a2ba;}.cls-25{fill:url(#linear-gradient-4);}.cls-26{fill:#cfcfe3;}.cls-27{fill:#e3e3ed;}.cls-28{fill:#f6f6f7;}.cls-29{fill:url(#linear-gradient-5);}.cls-30{fill:#fefdf6;}</style><linearGradient id="linear-gradient" x1="38.35" y1="22.84" x2="36.53" y2="19.68" gradientUnits="userSpaceOnUse"><stop offset="0" stop-color="#fff" stop-opacity="0"/><stop offset="0.27" stop-color="#e8e8e9" stop-opacity="0.34"/><stop offset="0.51" stop-color="#d4d6d7" stop-opacity="0.63"/><stop offset="0.73" stop-color="#c7c8ca" stop-opacity="0.83"/><stop offset="0.9" stop-color="#bec0c2" stop-opacity="0.95"/><stop offset="1" stop-color="#bbbdbf"/></linearGradient><linearGradient id="linear-gradient-2" x1="46.25" y1="56.53" x2="51.4" y2="56.53" gradientUnits="userSpaceOnUse"><stop offset="0" stop-color="#f7f7f7"/><stop offset="0" stop-color="#f6f6f6" stop-opacity="0.99"/><stop offset="0.04" stop-color="#eaeaef" stop-opacity="0.8"/><stop offset="0.09" stop-color="#dfdfe9" stop-opacity="0.63"/><stop offset="0.14" stop-color="#d5d5e3" stop-opacity="0.48"/><stop offset="0.19" stop-color="#cdcdde" stop-opacity="0.35"/><stop offset="0.25" stop-color="#c6c6da" stop-opacity="0.24"/><stop offset="0.32" stop-color="#c0c0d7" stop-opacity="0.15"/><stop offset="0.39" stop-color="#bbbbd4" stop-opacity="0.08"/><stop offset="0.49" stop-color="#b8b8d2" stop-opacity="0.04"/><stop offset="0.62" stop-color="#b6b6d1" stop-opacity="0.01"/><stop offset="1" stop-color="#b6b6d1" stop-opacity="0"/></linearGradient><linearGradient id="linear-gradient-3" x1="46.25" y1="131.18" x2="51.4" y2="131.18" xlink:href="#linear-gradient-2"/><linearGradient id="linear-gradient-4" x1="65.7" y1="25.77" x2="62.99" y2="21.09" xlink:href="#linear-gradient"/><linearGradient id="linear-gradient-5" x1="79.59" y1="32.36" x2="77.96" y2="29.53" gradientUnits="userSpaceOnUse"><stop offset="0" stop-color="#fff" stop-opacity="0"/><stop offset="0.07" stop-color="#f4f4f4" stop-opacity="0.13"/><stop offset="0.23" stop-color="#dcddde" stop-opacity="0.39"/><stop offset="0.39" stop-color="#c9cacc" stop-opacity="0.61"/><stop offset="0.54" stop-color="#b9bbbd" stop-opacity="0.78"/><stop offset="0.7" stop-color="#afb0b3" stop-opacity="0.9"/><stop offset="0.85" stop-color="#a8aaad" stop-opacity="0.98"/><stop offset="1" stop-color="#a6a8ab"/></linearGradient></defs><title>Element 25</title><g class="cls-1"><g id="Ebene_2" data-name="Ebene 2"><g id="OBJECTS"><g id="_Gruppe_" data-name="&lt;Gruppe&gt;"><g id="_Gruppe_2" data-name="&lt;Gruppe&gt;"><g id="_Gruppe_3" data-name="&lt;Gruppe&gt;"><g id="_Gruppe_4" data-name="&lt;Gruppe&gt;"><g id="_Gruppe_5" data-name="&lt;Gruppe&gt;"><g id="_Gruppe_6" data-name="&lt;Gruppe&gt;" class="cls-1"><g id="_Gruppe_7" data-name="&lt;Gruppe&gt;"><polygon id="_Pfad_" data-name="&lt;Pfad&gt;" class="cls-2" points="99.91 97.3 99.91 100.53 97.36 101.99 97.36 98.75 99.91 97.3"/></g></g></g><g id="_Gruppe_8" data-name="&lt;Gruppe&gt;"><g id="_Gruppe_9" data-name="&lt;Gruppe&gt;" class="cls-1"><g id="_Gruppe_10" data-name="&lt;Gruppe&gt;"><polygon id="_Pfad_2" data-name="&lt;Pfad&gt;" class="cls-3" points="59.6 76.94 59.6 80.18 97.36 101.99 97.36 98.75 59.6 76.94"/></g></g></g><polygon id="_Pfad_3" data-name="&lt;Pfad&gt;" class="cls-4" points="59.6 76.94 62.13 75.48 99.91 97.3 97.36 98.75 59.6 76.94"/></g><g id="_Gruppe_11" data-name="&lt;Gruppe&gt;"><g id="_Gruppe_12" data-name="&lt;Gruppe&gt;"><g id="_Gruppe_13" data-name="&lt;Gruppe&gt;" class="cls-1"><g id="_Gruppe_14" data-name="&lt;Gruppe&gt;"><polygon id="_Pfad_4" data-name="&lt;Pfad&gt;" class="cls-5" points="3.64 106.6 3.64 109.83 6.19 111.29 6.19 108.05 3.64 106.6"/></g></g></g><g id="_Gruppe_15" data-name="&lt;Gruppe&gt;"><g id="_Gruppe_16" data-name="&lt;Gruppe&gt;" class="cls-1"><g id="_Gruppe_17" data-name="&lt;Gruppe&gt;"><polygon id="_Pfad_5" data-name="&lt;Pfad&gt;" class="cls-3" points="62.35 75.61 62.35 78.85 6.19 111.29 6.19 108.05 62.35 75.61"/></g></g></g><polygon id="_Pfad_6" data-name="&lt;Pfad&gt;" class="cls-4" points="62.35 75.61 59.82 74.15 3.64 106.6 6.19 108.05 62.35 75.61"/></g><g id="_Gruppe_18" data-name="&lt;Gruppe&gt;"><g id="_Gruppe_19" data-name="&lt;Gruppe&gt;"><g id="_Gruppe_20" data-name="&lt;Gruppe&gt;" class="cls-1"><g id="_Gruppe_21" data-name="&lt;Gruppe&gt;"><polygon id="_Pfad_7" data-name="&lt;Pfad&gt;" class="cls-6" points="97.36 31.4 97.36 138.57 46.25 168.1 46.25 60.91 97.36 31.4"/></g></g></g><g id="_Gruppe_22" data-name="&lt;Gruppe&gt;"><g id="_Gruppe_23" data-name="&lt;Gruppe&gt;" class="cls-1"><g id="_Gruppe_24" data-name="&lt;Gruppe&gt;"><polygon id="_Pfad_8" data-name="&lt;Pfad&gt;" class="cls-7" points="46.25 60.91 46.25 168.1 22.09 154.14 22.09 152.52 13.59 147.6 12.19 148.41 12.19 148.41 12.19 148.41 8.7 146.4 8.7 39.23 46.25 60.91"/></g></g></g><polygon id="_Pfad_9" data-name="&lt;Pfad&gt;" class="cls-8" points="8.7 39.22 59.83 9.73 97.36 31.4 46.25 60.91 8.7 39.22"/></g><g id="_Gruppe_25" data-name="&lt;Gruppe&gt;"><polygon id="_Pfad_10" data-name="&lt;Pfad&gt;" class="cls-5" points="57.42 7.62 93.14 28.25 93.14 24.49 57.42 3.86 57.42 7.62"/><polygon id="_Pfad_11" data-name="&lt;Pfad&gt;" class="cls-8" points="57.42 3.86 57.42 7.62 7.31 36.55 7.31 32.79 57.42 3.86"/><g id="_Gruppe_26" data-name="&lt;Gruppe&gt;"><g id="_Gruppe_27" data-name="&lt;Gruppe&gt;" class="cls-1"><g id="_Gruppe_28" data-name="&lt;Gruppe&gt;"><polygon id="_Pfad_12" data-name="&lt;Pfad&gt;" class="cls-8" points="99.51 24.32 99.51 30.15 46.25 60.91 46.25 55.07 99.51 24.32"/></g></g></g><g id="_Gruppe_29" data-name="&lt;Gruppe&gt;"><g id="_Gruppe_30" data-name="&lt;Gruppe&gt;" class="cls-1"><g id="_Gruppe_31" data-name="&lt;Gruppe&gt;"><polygon id="_Pfad_13" data-name="&lt;Pfad&gt;" class="cls-5" points="4.12 30.74 4.12 36.57 46.25 60.91 46.25 55.07 4.12 30.74"/></g></g></g><path id="_Zusammengesetzter_Pfad_" data-name="&lt;Zusammengesetzter Pfad&gt;" class="cls-4" d="M57.39,0,4.12,30.74,46.25,55.07,99.51,24.32ZM10.57,30.91l46.85-27L93.14,24.49,46.29,51.54Z"/><polygon id="_Pfad_14" data-name="&lt;Pfad&gt;" class="cls-9" points="57.42 7.62 13.82 32.79 46.29 51.54 89.89 26.37 57.42 7.62"/></g><polygon id="_Pfad_15" data-name="&lt;Pfad&gt;" class="cls-10" points="57.42 11.42 20.4 32.8 46.29 47.74 83.31 26.36 57.42 11.42"/><polygon id="_Pfad_16" data-name="&lt;Pfad&gt;" class="cls-11" points="13.82 32.79 57.42 7.62 61.06 9.73 17.49 34.88 13.82 32.79"/><g id="_Gruppe_32" data-name="&lt;Gruppe&gt;" class="cls-12"><g id="_Gruppe_33" data-name="&lt;Gruppe&gt;" class="cls-1"><g id="_Gruppe_34" data-name="&lt;Gruppe&gt;"><polygon id="_Pfad_17" data-name="&lt;Pfad&gt;" class="cls-13" points="51.4 52.15 51.4 57.98 46.25 60.91 46.25 55.07 51.4 52.15"/></g></g></g><g id="_Gruppe_35" data-name="&lt;Gruppe&gt;"><g id="_Gruppe_36" data-name="&lt;Gruppe&gt;"><g id="_Gruppe_37" data-name="&lt;Gruppe&gt;"><g id="_Gruppe_38" data-name="&lt;Gruppe&gt;" class="cls-1"><g id="_Gruppe_39" data-name="&lt;Gruppe&gt;"><polygon id="_Pfad_18" data-name="&lt;Pfad&gt;" class="cls-2" points="46.25 128.27 46.25 131.51 43.71 132.97 43.71 129.73 46.25 128.27"/></g></g></g><g id="_Gruppe_40" data-name="&lt;Gruppe&gt;"><g id="_Gruppe_41" data-name="&lt;Gruppe&gt;" class="cls-1"><g id="_Gruppe_42" data-name="&lt;Gruppe&gt;"><polygon id="_Pfad_19" data-name="&lt;Pfad&gt;" class="cls-5" points="6.17 108.05 6.17 111.28 43.71 132.97 43.71 129.73 6.17 108.05"/></g></g></g><polygon id="_Pfad_20" data-name="&lt;Pfad&gt;" class="cls-4" points="6.17 108.05 8.7 106.58 46.25 128.27 43.71 129.73 6.17 108.05"/></g><g id="_Gruppe_43" data-name="&lt;Gruppe&gt;"><g id="_Gruppe_44" data-name="&lt;Gruppe&gt;"><g id="_Gruppe_45" data-name="&lt;Gruppe&gt;" class="cls-1"><g id="_Gruppe_46" data-name="&lt;Gruppe&gt;"><polygon id="_Pfad_21" data-name="&lt;Pfad&gt;" class="cls-5" points="43.7 129.73 43.7 132.96 46.25 134.42 46.25 131.18 43.7 129.73"/></g></g></g><g id="_Gruppe_47" data-name="&lt;Gruppe&gt;"><g id="_Gruppe_48" data-name="&lt;Gruppe&gt;" class="cls-1"><g id="_Gruppe_49" data-name="&lt;Gruppe&gt;"><polygon id="_Pfad_22" data-name="&lt;Pfad&gt;" class="cls-8" points="102.41 98.74 102.41 101.98 46.25 134.42 46.25 131.18 102.41 98.74"/></g></g></g><polygon id="_Pfad_23" data-name="&lt;Pfad&gt;" class="cls-4" points="102.41 98.74 99.88 97.28 43.7 129.73 46.25 131.18 102.41 98.74"/></g></g><g id="_Gruppe_50" data-name="&lt;Gruppe&gt;" class="cls-12"><g id="_Gruppe_51" data-name="&lt;Gruppe&gt;" class="cls-1"><g id="_Gruppe_52" data-name="&lt;Gruppe&gt;"><polygon id="_Pfad_24" data-name="&lt;Pfad&gt;" class="cls-14" points="51.4 128.1 51.4 131.32 46.25 134.25 46.25 131.02 51.4 128.1"/></g></g></g><polygon id="_Pfad_25" data-name="&lt;Pfad&gt;" class="cls-15" points="8.7 146.4 8.7 112.74 46.25 134.25 46.25 168.1 22.09 154.14 22.09 152.52 13.59 147.6 12.19 148.41 8.7 146.4"/><polygon id="_Pfad_26" data-name="&lt;Pfad&gt;" class="cls-16" points="46.25 168.1 46.25 134.25 97.36 105.04 97.36 138.57 46.25 168.1"/><polygon id="_Pfad_27" data-name="&lt;Pfad&gt;" class="cls-17" points="50.35 160.39 50.35 156.79 55.79 153.68 55.79 157.25 50.35 160.39"/><polygon id="_Pfad_28" data-name="&lt;Pfad&gt;" class="cls-17" points="71.47 148.8 71.47 145.19 76.91 142.09 76.91 145.66 71.47 148.8"/><polygon id="_Pfad_29" data-name="&lt;Pfad&gt;" class="cls-17" points="61.44 142.51 61.44 138.91 66.88 135.8 66.88 139.37 61.44 142.51"/><polygon id="_Pfad_30" data-name="&lt;Pfad&gt;" class="cls-15" points="47.63 148.15 47.63 144.54 53.07 141.44 53.07 145 47.63 148.15"/><polygon id="_Pfad_31" data-name="&lt;Pfad&gt;" class="cls-17" points="79.63 140.42 79.63 136.82 85.07 133.71 85.07 137.28 79.63 140.42"/><polygon id="_Pfad_32" data-name="&lt;Pfad&gt;" class="cls-15" points="56.88 150.81 56.88 147.2 62.32 144.09 62.32 147.66 56.88 150.81"/><polygon id="_Pfad_33" data-name="&lt;Pfad&gt;" class="cls-17" points="89.15 115.66 89.15 112.05 94.59 108.94 94.59 112.51 89.15 115.66"/><polygon id="_Pfad_34" data-name="&lt;Pfad&gt;" class="cls-15" points="90.24 137.82 90.24 134.22 95.68 131.11 95.68 134.68 90.24 137.82"/><polygon id="_Pfad_35" data-name="&lt;Pfad&gt;" class="cls-15" points="76.91 125.77 76.91 122.17 82.35 119.06 82.35 122.63 76.91 125.77"/><polygon id="_Pfad_36" data-name="&lt;Pfad&gt;" class="cls-17" points="74.19 133.08 74.19 129.48 79.63 126.37 79.63 129.94 74.19 133.08"/><polygon id="_Pfad_37" data-name="&lt;Pfad&gt;" class="cls-17" points="52.57 137.82 52.57 134.22 58.02 131.11 58.02 134.68 52.57 137.82"/><polygon id="_Pfad_38" data-name="&lt;Pfad&gt;" class="cls-16" points="43.26 148.15 43.26 144.54 37.82 141.44 37.82 145 43.26 148.15"/><polygon id="_Pfad_39" data-name="&lt;Pfad&gt;" class="cls-18" points="14.91 123.29 14.91 119.69 9.47 116.58 9.47 120.15 14.91 123.29"/><polygon id="_Pfad_40" data-name="&lt;Pfad&gt;" class="cls-18" points="26.4 138.44 26.4 134.84 20.96 131.73 20.96 135.29 26.4 138.44"/><polygon id="_Pfad_41" data-name="&lt;Pfad&gt;" class="cls-18" points="32.92 157.04 32.92 153.44 27.48 150.32 27.48 153.9 32.92 157.04"/><polygon id="_Pfad_42" data-name="&lt;Pfad&gt;" class="cls-16" points="33.44 133.08 33.44 129.48 27.99 126.37 27.99 129.94 33.44 133.08"/><polygon id="_Pfad_43" data-name="&lt;Pfad&gt;" class="cls-18" points="39.84 150.81 39.84 147.2 34.4 144.09 34.4 147.66 39.84 150.81"/><g id="_Gruppe_53" data-name="&lt;Gruppe&gt;"><g id="_Gruppe_54" data-name="&lt;Gruppe&gt;"><g id="_Gruppe_55" data-name="&lt;Gruppe&gt;"><g id="_Gruppe_56" data-name="&lt;Gruppe&gt;"><g id="_Gruppe_57" data-name="&lt;Gruppe&gt;"><g id="_Gruppe_58" data-name="&lt;Gruppe&gt;" class="cls-1"><g id="_Gruppe_59" data-name="&lt;Gruppe&gt;"><polygon id="_Pfad_44" data-name="&lt;Pfad&gt;" class="cls-19" points="25.18 128.14 25.18 144.65 43.03 154.96 43.03 138.45 25.18 128.14"/></g></g></g><g id="_Gruppe_60" data-name="&lt;Gruppe&gt;"><g id="_Gruppe_61" data-name="&lt;Gruppe&gt;" class="cls-1"><g id="_Gruppe_62" data-name="&lt;Gruppe&gt;"><polygon id="_Pfad_45" data-name="&lt;Pfad&gt;" class="cls-8" points="26.57 128.95 26.57 143.84 25.18 144.65 25.18 128.14 26.57 128.95"/></g></g></g></g></g></g><polygon id="_Pfad_46" data-name="&lt;Pfad&gt;" class="cls-4" points="25.18 144.65 26.57 143.84 43.03 153.34 43.03 154.96 25.18 144.65"/></g></g><g id="_Gruppe_63" data-name="&lt;Gruppe&gt;"><g id="_Gruppe_64" data-name="&lt;Gruppe&gt;"><g id="_Gruppe_65" data-name="&lt;Gruppe&gt;"><g id="_Gruppe_66" data-name="&lt;Gruppe&gt;"><g id="_Gruppe_67" data-name="&lt;Gruppe&gt;" class="cls-1"><g id="_Gruppe_68" data-name="&lt;Gruppe&gt;"><polygon id="_Pfad_47" data-name="&lt;Pfad&gt;" class="cls-5" points="77.73 50.31 77.73 66.83 71.33 70.53 71.33 54.01 77.73 50.31"/></g></g></g><g id="_Gruppe_69" data-name="&lt;Gruppe&gt;"><g id="_Gruppe_70" data-name="&lt;Gruppe&gt;" class="cls-1"><g id="_Gruppe_71" data-name="&lt;Gruppe&gt;"><polygon id="_Pfad_48" data-name="&lt;Pfad&gt;" class="cls-8" points="69.93 53.21 69.93 69.72 71.33 70.53 71.33 54.01 69.93 53.21"/></g></g></g><polygon id="_Pfad_49" data-name="&lt;Pfad&gt;" class="cls-4" points="69.93 53.21 76.33 49.51 77.73 50.31 71.33 54.01 69.93 53.21"/></g><g id="_Gruppe_72" data-name="&lt;Gruppe&gt;"><g id="_Gruppe_73" data-name="&lt;Gruppe&gt;" class="cls-1"><g id="_Gruppe_74" data-name="&lt;Gruppe&gt;"><polygon id="_Pfad_50" data-name="&lt;Pfad&gt;" class="cls-20" points="76.91 51.76 76.91 58.43 72.15 61.17 72.15 54.51 76.91 51.76"/></g></g></g><g id="_Gruppe_75" data-name="&lt;Gruppe&gt;"><g id="_Gruppe_76" data-name="&lt;Gruppe&gt;" class="cls-1"><g id="_Gruppe_77" data-name="&lt;Gruppe&gt;"><polygon id="_Pfad_51" data-name="&lt;Pfad&gt;" class="cls-20" points="76.91 59.67 76.91 66.33 72.15 69.08 72.15 62.41 76.91 59.67"/></g></g></g></g><g id="_Gruppe_78" data-name="&lt;Gruppe&gt;"><g id="_Gruppe_79" data-name="&lt;Gruppe&gt;"><g id="_Gruppe_80" data-name="&lt;Gruppe&gt;"><g id="_Gruppe_81" data-name="&lt;Gruppe&gt;" class="cls-1"><g id="_Gruppe_82" data-name="&lt;Gruppe&gt;"><polygon id="_Pfad_52" data-name="&lt;Pfad&gt;" class="cls-5" points="91.87 42.15 91.87 58.67 85.46 62.36 85.46 45.85 91.87 42.15"/></g></g></g><g id="_Gruppe_83" data-name="&lt;Gruppe&gt;"><g id="_Gruppe_84" data-name="&lt;Gruppe&gt;" class="cls-1"><g id="_Gruppe_85" data-name="&lt;Gruppe&gt;"><polygon id="_Pfad_53" data-name="&lt;Pfad&gt;" class="cls-8" points="84.06 45.05 84.06 61.55 85.46 62.36 85.46 45.85 84.06 45.05"/></g></g></g><polygon id="_Pfad_54" data-name="&lt;Pfad&gt;" class="cls-4" points="84.06 45.05 90.47 41.35 91.87 42.15 85.46 45.85 84.06 45.05"/></g><g id="_Gruppe_86" data-name="&lt;Gruppe&gt;"><g id="_Gruppe_87" data-name="&lt;Gruppe&gt;" class="cls-1"><g id="_Gruppe_88" data-name="&lt;Gruppe&gt;"><polygon id="_Pfad_55" data-name="&lt;Pfad&gt;" class="cls-20" points="91.04 43.6 91.04 50.27 86.29 53.01 86.29 46.35 91.04 43.6"/></g></g></g><g id="_Gruppe_89" data-name="&lt;Gruppe&gt;"><g id="_Gruppe_90" data-name="&lt;Gruppe&gt;" class="cls-1"><g id="_Gruppe_91" data-name="&lt;Gruppe&gt;"><polygon id="_Pfad_56" data-name="&lt;Pfad&gt;" class="cls-20" points="91.04 51.51 91.04 58.17 86.29 60.92 86.29 54.25 91.04 51.51"/></g></g></g></g></g><g id="_Gruppe_92" data-name="&lt;Gruppe&gt;"><g id="_Gruppe_93" data-name="&lt;Gruppe&gt;"><g id="_Gruppe_94" data-name="&lt;Gruppe&gt;"><g id="_Gruppe_95" data-name="&lt;Gruppe&gt;"><g id="_Gruppe_96" data-name="&lt;Gruppe&gt;" class="cls-1"><g id="_Gruppe_97" data-name="&lt;Gruppe&gt;"><polygon id="_Pfad_57" data-name="&lt;Pfad&gt;" class="cls-5" points="63.56 58.49 63.56 75.01 57.16 78.7 57.16 62.19 63.56 58.49"/></g></g></g><g id="_Gruppe_98" data-name="&lt;Gruppe&gt;"><g id="_Gruppe_99" data-name="&lt;Gruppe&gt;" class="cls-1"><g id="_Gruppe_100" data-name="&lt;Gruppe&gt;"><polygon id="_Pfad_58" data-name="&lt;Pfad&gt;" class="cls-8" points="55.76 61.39 55.76 77.89 57.16 78.7 57.16 62.19 55.76 61.39"/></g></g></g><polygon id="_Pfad_59" data-name="&lt;Pfad&gt;" class="cls-4" points="55.76 61.39 62.17 57.69 63.56 58.49 57.16 62.19 55.76 61.39"/></g><g id="_Gruppe_101" data-name="&lt;Gruppe&gt;"><g id="_Gruppe_102" data-name="&lt;Gruppe&gt;" class="cls-1"><g id="_Gruppe_103" data-name="&lt;Gruppe&gt;"><polygon id="_Pfad_60" data-name="&lt;Pfad&gt;" class="cls-20" points="62.74 59.94 62.74 66.61 57.98 69.35 57.98 62.69 62.74 59.94"/></g></g></g><g id="_Gruppe_104" data-name="&lt;Gruppe&gt;"><g id="_Gruppe_105" data-name="&lt;Gruppe&gt;" class="cls-1"><g id="_Gruppe_106" data-name="&lt;Gruppe&gt;"><polygon id="_Pfad_61" data-name="&lt;Pfad&gt;" class="cls-20" points="62.74 67.85 62.74 74.51 57.98 77.26 57.98 70.59 62.74 67.85"/></g></g></g></g></g><g id="_Gruppe_107" data-name="&lt;Gruppe&gt;"><g id="_Gruppe_108" data-name="&lt;Gruppe&gt;"><g id="_Gruppe_109" data-name="&lt;Gruppe&gt;"><g id="_Gruppe_110" data-name="&lt;Gruppe&gt;"><g id="_Gruppe_111" data-name="&lt;Gruppe&gt;" class="cls-1"><g id="_Gruppe_112" data-name="&lt;Gruppe&gt;"><polygon id="_Pfad_62" data-name="&lt;Pfad&gt;" class="cls-5" points="77.73 77.08 77.73 93.59 71.33 97.29 71.33 80.77 77.73 77.08"/></g></g></g><g id="_Gruppe_113" data-name="&lt;Gruppe&gt;"><g id="_Gruppe_114" data-name="&lt;Gruppe&gt;" class="cls-1"><g id="_Gruppe_115" data-name="&lt;Gruppe&gt;"><polygon id="_Pfad_63" data-name="&lt;Pfad&gt;" class="cls-8" points="69.93 79.97 69.93 96.48 71.33 97.29 71.33 80.77 69.93 79.97"/></g></g></g><polygon id="_Pfad_64" data-name="&lt;Pfad&gt;" class="cls-4" points="69.93 79.97 76.33 76.27 77.73 77.08 71.33 80.77 69.93 79.97"/></g><g id="_Gruppe_116" data-name="&lt;Gruppe&gt;"><g id="_Gruppe_117" data-name="&lt;Gruppe&gt;" class="cls-1"><g id="_Gruppe_118" data-name="&lt;Gruppe&gt;"><polygon id="_Pfad_65" data-name="&lt;Pfad&gt;" class="cls-20" points="76.91 78.52 76.91 85.19 72.15 87.94 72.15 81.27 76.91 78.52"/></g></g></g><g id="_Gruppe_119" data-name="&lt;Gruppe&gt;"><g id="_Gruppe_120" data-name="&lt;Gruppe&gt;" class="cls-1"><g id="_Gruppe_121" data-name="&lt;Gruppe&gt;"><polygon id="_Pfad_66" data-name="&lt;Pfad&gt;" class="cls-20" points="76.91 86.43 76.91 93.09 72.15 95.84 72.15 89.18 76.91 86.43"/></g></g></g></g><g id="_Gruppe_122" data-name="&lt;Gruppe&gt;"><g id="_Gruppe_123" data-name="&lt;Gruppe&gt;"><g id="_Gruppe_124" data-name="&lt;Gruppe&gt;"><g id="_Gruppe_125" data-name="&lt;Gruppe&gt;" class="cls-1"><g id="_Gruppe_126" data-name="&lt;Gruppe&gt;"><polygon id="_Pfad_67" data-name="&lt;Pfad&gt;" class="cls-5" points="91.87 68.92 91.87 85.43 85.46 89.13 85.46 72.61 91.87 68.92"/></g></g></g><g id="_Gruppe_127" data-name="&lt;Gruppe&gt;"><g id="_Gruppe_128" data-name="&lt;Gruppe&gt;" class="cls-1"><g id="_Gruppe_129" data-name="&lt;Gruppe&gt;"><polygon id="_Pfad_68" data-name="&lt;Pfad&gt;" class="cls-8" points="84.06 71.81 84.06 88.31 85.46 89.13 85.46 72.61 84.06 71.81"/></g></g></g><polygon id="_Pfad_69" data-name="&lt;Pfad&gt;" class="cls-4" points="84.06 71.81 90.47 68.11 91.87 68.92 85.46 72.61 84.06 71.81"/></g><g id="_Gruppe_130" data-name="&lt;Gruppe&gt;"><g id="_Gruppe_131" data-name="&lt;Gruppe&gt;" class="cls-1"><g id="_Gruppe_132" data-name="&lt;Gruppe&gt;"><polygon id="_Pfad_70" data-name="&lt;Pfad&gt;" class="cls-20" points="91.04 70.36 91.04 77.03 86.29 79.77 86.29 73.11 91.04 70.36"/></g></g></g><g id="_Gruppe_133" data-name="&lt;Gruppe&gt;"><g id="_Gruppe_134" data-name="&lt;Gruppe&gt;" class="cls-1"><g id="_Gruppe_135" data-name="&lt;Gruppe&gt;"><polygon id="_Pfad_71" data-name="&lt;Pfad&gt;" class="cls-20" points="91.04 78.27 91.04 84.93 86.29 87.68 86.29 81.01 91.04 78.27"/></g></g></g></g></g><g id="_Gruppe_136" data-name="&lt;Gruppe&gt;"><g id="_Gruppe_137" data-name="&lt;Gruppe&gt;"><g id="_Gruppe_138" data-name="&lt;Gruppe&gt;"><g id="_Gruppe_139" data-name="&lt;Gruppe&gt;"><g id="_Gruppe_140" data-name="&lt;Gruppe&gt;" class="cls-1"><g id="_Gruppe_141" data-name="&lt;Gruppe&gt;"><polygon id="_Pfad_72" data-name="&lt;Pfad&gt;" class="cls-5" points="63.58 85.25 63.58 101.76 57.17 105.46 57.17 88.94 63.58 85.25"/></g></g></g><g id="_Gruppe_142" data-name="&lt;Gruppe&gt;"><g id="_Gruppe_143" data-name="&lt;Gruppe&gt;" class="cls-1"><g id="_Gruppe_144" data-name="&lt;Gruppe&gt;"><polygon id="_Pfad_73" data-name="&lt;Pfad&gt;" class="cls-8" points="55.77 88.15 55.77 104.65 57.17 105.46 57.17 88.94 55.77 88.15"/></g></g></g><polygon id="_Pfad_74" data-name="&lt;Pfad&gt;" class="cls-4" points="55.77 88.15 62.18 84.44 63.58 85.25 57.17 88.94 55.77 88.15"/></g><g id="_Gruppe_145" data-name="&lt;Gruppe&gt;"><g id="_Gruppe_146" data-name="&lt;Gruppe&gt;" class="cls-1"><g id="_Gruppe_147" data-name="&lt;Gruppe&gt;"><polygon id="_Pfad_75" data-name="&lt;Pfad&gt;" class="cls-20" points="62.76 86.69 62.76 93.36 58 96.1 58 89.44 62.76 86.69"/></g></g></g><g id="_Gruppe_148" data-name="&lt;Gruppe&gt;"><g id="_Gruppe_149" data-name="&lt;Gruppe&gt;" class="cls-1"><g id="_Gruppe_150" data-name="&lt;Gruppe&gt;"><polygon id="_Pfad_76" data-name="&lt;Pfad&gt;" class="cls-20" points="62.76 94.6 62.76 101.27 58 104.01 58 97.35 62.76 94.6"/></g></g></g></g></g><g id="_Gruppe_151" data-name="&lt;Gruppe&gt;"><g id="_Gruppe_152" data-name="&lt;Gruppe&gt;"><g id="_Gruppe_153" data-name="&lt;Gruppe&gt;"><g id="_Gruppe_154" data-name="&lt;Gruppe&gt;"><g id="_Gruppe_155" data-name="&lt;Gruppe&gt;" class="cls-1"><g id="_Gruppe_156" data-name="&lt;Gruppe&gt;"><polygon id="_Pfad_77" data-name="&lt;Pfad&gt;" class="cls-5" points="63.6 130.58 63.6 147.09 57.19 150.79 57.19 134.28 63.6 130.58"/></g></g></g><g id="_Gruppe_157" data-name="&lt;Gruppe&gt;"><g id="_Gruppe_158" data-name="&lt;Gruppe&gt;" class="cls-1"><g id="_Gruppe_159" data-name="&lt;Gruppe&gt;"><polygon id="_Pfad_78" data-name="&lt;Pfad&gt;" class="cls-8" points="55.79 133.48 55.79 149.98 57.19 150.79 57.19 134.28 55.79 133.48"/></g></g></g><polygon id="_Pfad_79" data-name="&lt;Pfad&gt;" class="cls-4" points="55.79 133.48 62.2 129.77 63.6 130.58 57.19 134.28 55.79 133.48"/></g><g id="_Gruppe_160" data-name="&lt;Gruppe&gt;"><g id="_Gruppe_161" data-name="&lt;Gruppe&gt;" class="cls-1"><g id="_Gruppe_162" data-name="&lt;Gruppe&gt;"><polygon id="_Pfad_80" data-name="&lt;Pfad&gt;" class="cls-20" points="62.77 132.02 62.77 138.69 58.02 141.44 58.02 134.77 62.77 132.02"/></g></g></g><g id="_Gruppe_163" data-name="&lt;Gruppe&gt;"><g id="_Gruppe_164" data-name="&lt;Gruppe&gt;" class="cls-1"><g id="_Gruppe_165" data-name="&lt;Gruppe&gt;"><polygon id="_Pfad_81" data-name="&lt;Pfad&gt;" class="cls-20" points="62.77 139.93 62.77 146.59 58.02 149.34 58.02 142.68 62.77 139.93"/></g></g></g></g><g id="_Gruppe_166" data-name="&lt;Gruppe&gt;"><g id="_Gruppe_167" data-name="&lt;Gruppe&gt;"><g id="_Gruppe_168" data-name="&lt;Gruppe&gt;"><g id="_Gruppe_169" data-name="&lt;Gruppe&gt;" class="cls-1"><g id="_Gruppe_170" data-name="&lt;Gruppe&gt;"><polygon id="_Pfad_82" data-name="&lt;Pfad&gt;" class="cls-5" points="77.73 122.42 77.73 138.93 71.33 142.63 71.33 126.11 77.73 122.42"/></g></g></g><g id="_Gruppe_171" data-name="&lt;Gruppe&gt;"><g id="_Gruppe_172" data-name="&lt;Gruppe&gt;" class="cls-1"><g id="_Gruppe_173" data-name="&lt;Gruppe&gt;"><polygon id="_Pfad_83" data-name="&lt;Pfad&gt;" class="cls-8" points="69.93 125.31 69.93 141.81 71.33 142.63 71.33 126.11 69.93 125.31"/></g></g></g><polygon id="_Pfad_84" data-name="&lt;Pfad&gt;" class="cls-4" points="69.93 125.31 76.33 121.61 77.73 122.42 71.33 126.11 69.93 125.31"/></g><g id="_Gruppe_174" data-name="&lt;Gruppe&gt;"><g id="_Gruppe_175" data-name="&lt;Gruppe&gt;" class="cls-1"><g id="_Gruppe_176" data-name="&lt;Gruppe&gt;"><polygon id="_Pfad_85" data-name="&lt;Pfad&gt;" class="cls-20" points="76.91 123.86 76.91 130.53 72.15 133.27 72.15 126.61 76.91 123.86"/></g></g></g><g id="_Gruppe_177" data-name="&lt;Gruppe&gt;"><g id="_Gruppe_178" data-name="&lt;Gruppe&gt;" class="cls-1"><g id="_Gruppe_179" data-name="&lt;Gruppe&gt;"><polygon id="_Pfad_86" data-name="&lt;Pfad&gt;" class="cls-20" points="76.91 131.77 76.91 138.43 72.15 141.18 72.15 134.51 76.91 131.77"/></g></g></g></g><g id="_Gruppe_180" data-name="&lt;Gruppe&gt;"><g id="_Gruppe_181" data-name="&lt;Gruppe&gt;"><g id="_Gruppe_182" data-name="&lt;Gruppe&gt;"><g id="_Gruppe_183" data-name="&lt;Gruppe&gt;" class="cls-1"><g id="_Gruppe_184" data-name="&lt;Gruppe&gt;"><polygon id="_Pfad_87" data-name="&lt;Pfad&gt;" class="cls-5" points="91.87 114.25 91.87 130.77 85.46 134.46 85.46 117.95 91.87 114.25"/></g></g></g><g id="_Gruppe_185" data-name="&lt;Gruppe&gt;"><g id="_Gruppe_186" data-name="&lt;Gruppe&gt;" class="cls-1"><g id="_Gruppe_187" data-name="&lt;Gruppe&gt;"><polygon id="_Pfad_88" data-name="&lt;Pfad&gt;" class="cls-8" points="84.06 117.15 84.06 133.65 85.46 134.46 85.46 117.95 84.06 117.15"/></g></g></g><polygon id="_Pfad_89" data-name="&lt;Pfad&gt;" class="cls-4" points="84.06 117.15 90.47 113.45 91.87 114.25 85.46 117.95 84.06 117.15"/></g><g id="_Gruppe_188" data-name="&lt;Gruppe&gt;"><g id="_Gruppe_189" data-name="&lt;Gruppe&gt;" class="cls-1"><g id="_Gruppe_190" data-name="&lt;Gruppe&gt;"><polygon id="_Pfad_90" data-name="&lt;Pfad&gt;" class="cls-20" points="91.04 115.7 91.04 122.36 86.29 125.11 86.29 118.45 91.04 115.7"/></g></g></g><g id="_Gruppe_191" data-name="&lt;Gruppe&gt;"><g id="_Gruppe_192" data-name="&lt;Gruppe&gt;" class="cls-1"><g id="_Gruppe_193" data-name="&lt;Gruppe&gt;"><polygon id="_Pfad_91" data-name="&lt;Pfad&gt;" class="cls-20" points="91.04 123.61 91.04 130.27 86.29 133.02 86.29 126.35 91.04 123.61"/></g></g></g></g></g><g id="_Gruppe_194" data-name="&lt;Gruppe&gt;"><g id="_Gruppe_195" data-name="&lt;Gruppe&gt;"><g id="_Gruppe_196" data-name="&lt;Gruppe&gt;"><g id="_Gruppe_197" data-name="&lt;Gruppe&gt;"><g id="_Gruppe_198" data-name="&lt;Gruppe&gt;" class="cls-1"><g id="_Gruppe_199" data-name="&lt;Gruppe&gt;"><polygon id="_Pfad_92" data-name="&lt;Pfad&gt;" class="cls-5" points="30.71 59.47 30.71 75.98 37.12 79.67 37.12 63.16 30.71 59.47"/></g></g></g><g id="_Gruppe_200" data-name="&lt;Gruppe&gt;"><g id="_Gruppe_201" data-name="&lt;Gruppe&gt;" class="cls-1"><g id="_Gruppe_202" data-name="&lt;Gruppe&gt;"><polygon id="_Pfad_93" data-name="&lt;Pfad&gt;" class="cls-8" points="38.52 62.36 38.52 78.86 37.12 79.67 37.12 63.16 38.52 62.36"/></g></g></g><polygon id="_Pfad_94" data-name="&lt;Pfad&gt;" class="cls-4" points="38.52 62.36 32.11 58.66 30.71 59.47 37.12 63.16 38.52 62.36"/></g><g id="_Gruppe_203" data-name="&lt;Gruppe&gt;"><g id="_Gruppe_204" data-name="&lt;Gruppe&gt;" class="cls-1"><g id="_Gruppe_205" data-name="&lt;Gruppe&gt;"><polygon id="_Pfad_95" data-name="&lt;Pfad&gt;" class="cls-20" points="31.54 60.91 31.54 67.58 36.3 70.32 36.3 63.66 31.54 60.91"/></g></g></g><g id="_Gruppe_206" data-name="&lt;Gruppe&gt;"><g id="_Gruppe_207" data-name="&lt;Gruppe&gt;" class="cls-1"><g id="_Gruppe_208" data-name="&lt;Gruppe&gt;"><polygon id="_Pfad_96" data-name="&lt;Pfad&gt;" class="cls-20" points="31.54 68.82 31.54 75.48 36.3 78.23 36.3 71.56 31.54 68.82"/></g></g></g></g><g id="_Gruppe_209" data-name="&lt;Gruppe&gt;"><g id="_Gruppe_210" data-name="&lt;Gruppe&gt;"><g id="_Gruppe_211" data-name="&lt;Gruppe&gt;"><g id="_Gruppe_212" data-name="&lt;Gruppe&gt;" class="cls-1"><g id="_Gruppe_213" data-name="&lt;Gruppe&gt;"><polygon id="_Pfad_97" data-name="&lt;Pfad&gt;" class="cls-5" points="16.58 51.3 16.58 67.81 22.98 71.51 22.98 55 16.58 51.3"/></g></g></g><g id="_Gruppe_214" data-name="&lt;Gruppe&gt;"><g id="_Gruppe_215" data-name="&lt;Gruppe&gt;" class="cls-1"><g id="_Gruppe_216" data-name="&lt;Gruppe&gt;"><polygon id="_Pfad_98" data-name="&lt;Pfad&gt;" class="cls-8" points="24.38 54.2 24.38 70.7 22.98 71.51 22.98 55 24.38 54.2"/></g></g></g><polygon id="_Pfad_99" data-name="&lt;Pfad&gt;" class="cls-4" points="24.38 54.2 17.98 50.5 16.58 51.3 22.98 55 24.38 54.2"/></g><g id="_Gruppe_217" data-name="&lt;Gruppe&gt;"><g id="_Gruppe_218" data-name="&lt;Gruppe&gt;" class="cls-1"><g id="_Gruppe_219" data-name="&lt;Gruppe&gt;"><polygon id="_Pfad_100" data-name="&lt;Pfad&gt;" class="cls-20" points="17.4 52.75 17.4 59.41 22.16 62.16 22.16 55.49 17.4 52.75"/></g></g></g><g id="_Gruppe_220" data-name="&lt;Gruppe&gt;"><g id="_Gruppe_221" data-name="&lt;Gruppe&gt;" class="cls-1"><g id="_Gruppe_222" data-name="&lt;Gruppe&gt;"><polygon id="_Pfad_101" data-name="&lt;Pfad&gt;" class="cls-20" points="17.4 60.66 17.4 67.32 22.16 70.07 22.16 63.4 17.4 60.66"/></g></g></g></g></g><g id="_Gruppe_223" data-name="&lt;Gruppe&gt;"><g id="_Gruppe_224" data-name="&lt;Gruppe&gt;"><g id="_Gruppe_225" data-name="&lt;Gruppe&gt;"><g id="_Gruppe_226" data-name="&lt;Gruppe&gt;"><g id="_Gruppe_227" data-name="&lt;Gruppe&gt;" class="cls-1"><g id="_Gruppe_228" data-name="&lt;Gruppe&gt;"><polygon id="_Pfad_102" data-name="&lt;Pfad&gt;" class="cls-5" points="30.71 86.21 30.71 102.72 37.12 106.42 37.12 89.91 30.71 86.21"/></g></g></g><g id="_Gruppe_229" data-name="&lt;Gruppe&gt;"><g id="_Gruppe_230" data-name="&lt;Gruppe&gt;" class="cls-1"><g id="_Gruppe_231" data-name="&lt;Gruppe&gt;"><polygon id="_Pfad_103" data-name="&lt;Pfad&gt;" class="cls-8" points="38.52 89.11 38.52 105.61 37.12 106.42 37.12 89.91 38.52 89.11"/></g></g></g><polygon id="_Pfad_104" data-name="&lt;Pfad&gt;" class="cls-4" points="38.52 89.11 32.11 85.4 30.71 86.21 37.12 89.91 38.52 89.11"/></g><g id="_Gruppe_232" data-name="&lt;Gruppe&gt;"><g id="_Gruppe_233" data-name="&lt;Gruppe&gt;" class="cls-1"><g id="_Gruppe_234" data-name="&lt;Gruppe&gt;"><polygon id="_Pfad_105" data-name="&lt;Pfad&gt;" class="cls-20" points="31.54 87.65 31.54 94.32 36.3 97.07 36.3 90.4 31.54 87.65"/></g></g></g><g id="_Gruppe_235" data-name="&lt;Gruppe&gt;"><g id="_Gruppe_236" data-name="&lt;Gruppe&gt;" class="cls-1"><g id="_Gruppe_237" data-name="&lt;Gruppe&gt;"><polygon id="_Pfad_106" data-name="&lt;Pfad&gt;" class="cls-20" points="31.54 95.56 31.54 102.23 36.3 104.97 36.3 98.31 31.54 95.56"/></g></g></g></g><g id="_Gruppe_238" data-name="&lt;Gruppe&gt;"><g id="_Gruppe_239" data-name="&lt;Gruppe&gt;"><g id="_Gruppe_240" data-name="&lt;Gruppe&gt;"><g id="_Gruppe_241" data-name="&lt;Gruppe&gt;" class="cls-1"><g id="_Gruppe_242" data-name="&lt;Gruppe&gt;"><polygon id="_Pfad_107" data-name="&lt;Pfad&gt;" class="cls-5" points="16.58 78.05 16.58 94.56 22.98 98.26 22.98 81.75 16.58 78.05"/></g></g></g><g id="_Gruppe_243" data-name="&lt;Gruppe&gt;"><g id="_Gruppe_244" data-name="&lt;Gruppe&gt;" class="cls-1"><g id="_Gruppe_245" data-name="&lt;Gruppe&gt;"><polygon id="_Pfad_108" data-name="&lt;Pfad&gt;" class="cls-8" points="24.38 80.94 24.38 97.45 22.98 98.26 22.98 81.75 24.38 80.94"/></g></g></g><polygon id="_Pfad_109" data-name="&lt;Pfad&gt;" class="cls-4" points="24.38 80.94 17.98 77.24 16.58 78.05 22.98 81.75 24.38 80.94"/></g><g id="_Gruppe_246" data-name="&lt;Gruppe&gt;"><g id="_Gruppe_247" data-name="&lt;Gruppe&gt;" class="cls-1"><g id="_Gruppe_248" data-name="&lt;Gruppe&gt;"><polygon id="_Pfad_110" data-name="&lt;Pfad&gt;" class="cls-20" points="17.4 79.49 17.4 86.16 22.16 88.9 22.16 82.24 17.4 79.49"/></g></g></g><g id="_Gruppe_249" data-name="&lt;Gruppe&gt;"><g id="_Gruppe_250" data-name="&lt;Gruppe&gt;" class="cls-1"><g id="_Gruppe_251" data-name="&lt;Gruppe&gt;"><polygon id="_Pfad_111" data-name="&lt;Pfad&gt;" class="cls-20" points="17.4 87.4 17.4 94.06 22.16 96.81 22.16 90.15 17.4 87.4"/></g></g></g></g></g><g id="_Gruppe_252" data-name="&lt;Gruppe&gt;"><g id="_Gruppe_253" data-name="&lt;Gruppe&gt;"><g id="_Gruppe_254" data-name="&lt;Gruppe&gt;"><g id="_Gruppe_255" data-name="&lt;Gruppe&gt;"><g id="_Gruppe_256" data-name="&lt;Gruppe&gt;"><g id="_Gruppe_257" data-name="&lt;Gruppe&gt;"><g id="_Gruppe_258" data-name="&lt;Gruppe&gt;" class="cls-1"><g id="_Gruppe_259" data-name="&lt;Gruppe&gt;"><polygon id="_Pfad_112" data-name="&lt;Pfad&gt;" class="cls-5" points="22.09 124.8 22.09 152.52 13.59 147.6 12.19 148.41 12.19 148.41 12.19 148.41 12.19 119.08 22.09 124.8"/></g></g></g><g id="_Gruppe_260" data-name="&lt;Gruppe&gt;"><g id="_Gruppe_261" data-name="&lt;Gruppe&gt;" class="cls-1"><g id="_Gruppe_262" data-name="&lt;Gruppe&gt;"><polygon id="_Pfad_113" data-name="&lt;Pfad&gt;" class="cls-8" points="13.59 119.89 13.59 147.6 12.19 148.41 12.19 119.08 13.59 119.89"/></g></g></g></g></g></g></g><g id="_Gruppe_263" data-name="&lt;Gruppe&gt;"><g id="_Gruppe_264" data-name="&lt;Gruppe&gt;"><g id="_Gruppe_265" data-name="&lt;Gruppe&gt;"><g id="_Gruppe_266" data-name="&lt;Gruppe&gt;"><g id="_Gruppe_267" data-name="&lt;Gruppe&gt;"><g id="_Gruppe_268" data-name="&lt;Gruppe&gt;" class="cls-1"><g id="_Gruppe_269" data-name="&lt;Gruppe&gt;"><polygon id="_Pfad_114" data-name="&lt;Pfad&gt;" class="cls-20" points="14.4 121.53 14.4 140.2 21.14 144.09 21.14 125.42 14.4 121.53"/></g></g></g><g id="_Gruppe_270" data-name="&lt;Gruppe&gt;"><g id="_Gruppe_271" data-name="&lt;Gruppe&gt;" class="cls-1"><g id="_Gruppe_272" data-name="&lt;Gruppe&gt;"><polygon id="_Pfad_115" data-name="&lt;Pfad&gt;" class="cls-21" points="15.13 121.95 15.13 139.77 14.4 140.2 14.4 121.53 15.13 121.95"/></g></g></g></g></g></g><polygon id="_Pfad_116" data-name="&lt;Pfad&gt;" class="cls-22" points="14.4 140.2 15.13 139.77 21.14 143.25 21.14 144.09 14.4 140.2"/></g></g><g id="_Gruppe_273" data-name="&lt;Gruppe&gt;"><g id="_Gruppe_274" data-name="&lt;Gruppe&gt;"><polygon id="_Pfad_117" data-name="&lt;Pfad&gt;" class="cls-3" points="57.44 15.58 62.49 18.5 62.49 16.55 57.44 13.64 57.44 15.58"/><polygon id="_Pfad_118" data-name="&lt;Pfad&gt;" class="cls-2" points="57.44 13.64 57.44 15.58 50.7 19.47 50.7 17.52 57.44 13.64"/><g id="_Gruppe_275" data-name="&lt;Gruppe&gt;"><g id="_Gruppe_276" data-name="&lt;Gruppe&gt;" class="cls-1"><g id="_Gruppe_277" data-name="&lt;Gruppe&gt;"><polygon id="_Pfad_119" data-name="&lt;Pfad&gt;" class="cls-2" points="65.78 16.46 65.78 19.48 57.42 24.32 57.42 21.3 65.78 16.46"/></g></g></g><g id="_Gruppe_278" data-name="&lt;Gruppe&gt;"><g id="_Gruppe_279" data-name="&lt;Gruppe&gt;" class="cls-1"><g id="_Gruppe_280" data-name="&lt;Gruppe&gt;"><polygon id="_Pfad_120" data-name="&lt;Pfad&gt;" class="cls-3" points="49.05 16.46 49.05 19.48 57.42 24.32 57.42 21.3 49.05 16.46"/></g></g></g><path id="_Zusammengesetzter_Pfad_2" data-name="&lt;Zusammengesetzter Pfad&gt;" class="cls-23" d="M57.42,11.64l-8.37,4.82,8.37,4.83,8.37-4.83Zm-5,4.91,5-2.91,5.05,2.91-5.05,2.92Z"/><polygon id="_Pfad_121" data-name="&lt;Pfad&gt;" class="cls-24" points="57.44 15.58 54.07 17.52 57.44 19.47 60.81 17.52 57.44 15.58"/></g><polygon id="_Pfad_122" data-name="&lt;Pfad&gt;" class="cls-25" points="65.78 19.48 57.42 24.32 64.23 26.62 71.27 22.55 65.78 19.48"/></g><g id="_Gruppe_281" data-name="&lt;Gruppe&gt;"><g id="_Gruppe_282" data-name="&lt;Gruppe&gt;"><g id="_Gruppe_283" data-name="&lt;Gruppe&gt;"><g id="_Gruppe_284" data-name="&lt;Gruppe&gt;" class="cls-1"><g id="_Gruppe_285" data-name="&lt;Gruppe&gt;"><polygon id="_Pfad_123" data-name="&lt;Pfad&gt;" class="cls-26" points="83.31 15.67 83.31 26.43 73.82 32.15 73.82 21.39 83.31 15.67"/></g></g></g><g id="_Gruppe_286" data-name="&lt;Gruppe&gt;"><g id="_Gruppe_287" data-name="&lt;Gruppe&gt;" class="cls-1"><g id="_Gruppe_288" data-name="&lt;Gruppe&gt;"><polygon id="_Pfad_124" data-name="&lt;Pfad&gt;" class="cls-27" points="64.23 15.86 64.23 26.62 73.82 32.15 73.82 21.39 64.23 15.86"/></g></g></g><polygon id="_Pfad_125" data-name="&lt;Pfad&gt;" class="cls-28" points="64.23 15.86 73.73 10.14 83.31 15.67 73.82 21.39 64.23 15.86"/></g><g id="_Gruppe_289" data-name="&lt;Gruppe&gt;"><g id="_Gruppe_290" data-name="&lt;Gruppe&gt;"><g id="_Gruppe_291" data-name="&lt;Gruppe&gt;" class="cls-1"><g id="_Gruppe_292" data-name="&lt;Gruppe&gt;"><polygon id="_Pfad_126" data-name="&lt;Pfad&gt;" class="cls-26" points="73.82 29.11 73.82 32.18 71.11 33.81 71.11 30.74 73.82 29.11"/></g></g></g><g id="_Gruppe_293" data-name="&lt;Gruppe&gt;"><g id="_Gruppe_294" data-name="&lt;Gruppe&gt;" class="cls-1"><g id="_Gruppe_295" data-name="&lt;Gruppe&gt;"><polygon id="_Pfad_127" data-name="&lt;Pfad&gt;" class="cls-27" points="68.38 29.16 68.38 32.23 71.11 33.81 71.11 30.74 68.38 29.16"/></g></g></g><polygon id="_Pfad_128" data-name="&lt;Pfad&gt;" class="cls-28" points="68.38 29.16 71.09 27.53 73.82 29.11 71.11 30.74 68.38 29.16"/></g><polygon id="_Pfad_129" data-name="&lt;Pfad&gt;" class="cls-29" points="75.28 34.69 71.11 33.81 83.31 26.43 86.59 28.32 75.28 34.69"/></g><g id="_Gruppe_296" data-name="&lt;Gruppe&gt;"><polygon id="_Pfad_130" data-name="&lt;Pfad&gt;" class="cls-6" points="42.42 132.06 42.42 141.78 34.02 146.63 42.42 132.06"/><polygon id="_Pfad_131" data-name="&lt;Pfad&gt;" class="cls-7" points="8.36 112.54 0 126.99 34.02 146.63 42.42 132.06 8.36 112.54"/><polygon id="_Pfad_132" data-name="&lt;Pfad&gt;" class="cls-30" points="10.97 114.06 2.62 128.5 5.24 130.02 13.59 115.54 10.97 114.06"/><polygon id="_Pfad_133" data-name="&lt;Pfad&gt;" class="cls-30" points="16.21 117.08 7.85 131.52 10.47 133.04 18.81 118.58 16.21 117.08"/><polygon id="_Pfad_134" data-name="&lt;Pfad&gt;" class="cls-30" points="21.44 120.1 13.08 134.54 15.71 136.06 24.05 121.61 21.44 120.1"/><polygon id="_Pfad_135" data-name="&lt;Pfad&gt;" class="cls-30" points="26.68 123.12 18.32 137.56 20.94 139.08 29.28 124.63 26.68 123.12"/><polygon id="_Pfad_136" data-name="&lt;Pfad&gt;" class="cls-30" points="31.91 126.14 23.55 140.59 26.17 142.1 34.52 127.65 31.91 126.14"/><polygon id="_Pfad_137" data-name="&lt;Pfad&gt;" class="cls-30" points="37.14 129.16 28.78 143.61 31.41 145.12 39.74 130.68 37.14 129.16"/></g><g id="_Gruppe_297" data-name="&lt;Gruppe&gt;"><g id="_Gruppe_298" data-name="&lt;Gruppe&gt;"><g id="_Gruppe_299" data-name="&lt;Gruppe&gt;"><g id="_Gruppe_300" data-name="&lt;Gruppe&gt;" class="cls-1"><g id="_Gruppe_301" data-name="&lt;Gruppe&gt;"><polygon id="_Pfad_138" data-name="&lt;Pfad&gt;" class="cls-5" points="10.17 99.84 10.17 116.35 38.31 132.6 38.31 116.09 10.17 99.84"/></g></g></g><g id="_Gruppe_302" data-name="&lt;Gruppe&gt;"><g id="_Gruppe_303" data-name="&lt;Gruppe&gt;" class="cls-1"><g id="_Gruppe_304" data-name="&lt;Gruppe&gt;"><polygon id="_Pfad_139" data-name="&lt;Pfad&gt;" class="cls-8" points="40.88 114.61 40.88 131.12 38.31 132.6 38.31 116.09 40.88 114.61"/></g></g></g><polygon id="_Pfad_140" data-name="&lt;Pfad&gt;" class="cls-4" points="40.88 114.61 12.73 98.36 10.17 99.84 38.31 116.09 40.88 114.61"/></g></g></g></g></g></g></g></svg>