<?xml version="1.0" encoding="UTF-8"?>
<svg width="100pt" height="100pt" version="1.1" viewBox="0 0 100 100" xmlns="http://www.w3.org/2000/svg">
 <g>
  <path d="m69.938 61.875c-5.6523 0-10.25 4.5977-10.25 10.25s4.5977 10.25 10.25 10.25 10.25-4.5977 10.25-10.25-4.5977-10.25-10.25-10.25zm0 18.5c-4.5508 0-8.25-3.6992-8.25-8.25s3.6992-8.25 8.25-8.25 8.25 3.6992 8.25 8.25-3.6992 8.25-8.25 8.25z"/>
  <path d="m45.871 63.5c0.55078 0 1-0.44922 1-1v-44.168c0-0.55078-0.44922-1-1-1h-2.8594l-2.8945-3.3398c-2.1992-2.5352-5.457-3.9922-8.9414-3.9922h-5.4805c-3.4844 0-6.7422 1.457-8.9375 3.9922l-2.8945 3.3398h-2.8633c-0.55078 0-1 0.44922-1 1v44.168c0 0.55078 0.44922 1 1 1h2.4258v18.703c-1.6562 0.17969-2.957 1.5742-2.957 3.2773l0.003906 3.5195c0 0.55078 0.44922 1 1 1h5.9102c0.55078 0 1-0.44922 1-1v-3.5195c0-1.7031-1.2969-3.0938-2.957-3.2773v-15.523l4.4727 9.2695c0.16797 0.34375 0.51562 0.56641 0.90234 0.56641h1.8086v5.0039c0 0.55078 0.44922 1 1 1h9.4375c0.55078 0 1-0.44922 1-1v-5.0039h1.8086c0.38281 0 0.73438-0.21875 0.90234-0.56641l4.6914-9.7227v15.977c-1.6562 0.17969-2.957 1.5742-2.957 3.2773l-0.003907 3.5195c0 0.55078 0.44922 1 1 1h5.9102c0.55078 0 1-0.44922 1-1v-3.5195c0-1.7031-1.2969-3.0938-2.9531-3.2773v-18.703zm-27.605-48.199c1.8203-2.0977 4.5273-3.3008 7.4297-3.3008h5.4805c2.9023 0 5.6094 1.2031 7.4258 3.3008l1.7578 2.0312h-23.852zm-6.2656 4.0312h32.871v42.168h-32.871zm4.3828 66.148v2.5195h-3.9102v-2.5195c0-0.72656 0.58984-1.3125 1.3125-1.3125h1.2812c0.72656 0 1.3164 0.58984 1.3164 1.3125zm15.66-4.9609h-7.4375v-4.0039h7.4375zm3.1836-6.0039h-13.801l-5.3125-11.016h24.426zm9.1719 10.965v2.5195h-3.9102v-2.5195c0-0.72656 0.58984-1.3125 1.3125-1.3125h1.2812c0.72656 0 1.3164 0.58984 1.3164 1.3125z"/>
  <path d="m36.262 44.375h-15.652c-0.55078 0-1 0.44922-1 1v9.25c0 0.55078 0.44922 1 1 1h15.648c0.55078 0 1-0.44922 1-1v-9.25c0.003907-0.55078-0.44531-1-0.99609-1zm-1 9.25h-13.652v-7.25h13.648z"/>
  <path d="m89 16.801h-14.438v-5.8008c0-0.55078-0.44922-1-1-1h-7.25c-0.55078 0-1 0.44922-1 1v5.8008h-6.5781c-4.2539 0-7.7109 3.4609-7.7109 7.7109l-0.003907 25.301c-0.74219 2.1016-1.1445 4.3516-1.1445 6.6797v32.508c0 0.55078 0.44922 1 1 1h38.125c0.55078 0 1-0.44922 1-1v-32.508c0-9.3203-6.4453-17.402-15.438-19.523v-11.824h14.438c0.55078 0 1-0.44922 1-1v-6.3438c0-0.55469-0.44922-1-1-1zm-35.98 7.7109c0-3.1484 2.5625-5.7109 5.7109-5.7109h6.5781v4.3438h-4.3633c-1.7891 0-3.2422 1.4531-3.2422 3.2422v14.207c-1.8555 1.4297-3.4336 3.1797-4.6875 5.1484zm12.293 0.63281v11.828c-2.0117 0.47656-3.8906 1.2617-5.6055 2.2812v-12.867c0-0.68359 0.55469-1.2422 1.2422-1.2422zm22.688 62.855h-36.125v-31.508c0-0.33594 0.027344-0.66406 0.042969-0.99219h36.035c0.019531 0.33203 0.046875 0.66016 0.046875 0.99219zm-0.25781-34.5h-35.609c1.2305-7.3203 6.8945-13.297 14.371-14.738 0.46875-0.089844 0.8125-0.50391 0.8125-0.98047l-0.003906-25.781h5.25v25.781c0 0.48047 0.33984 0.89062 0.8125 0.98047 7.4766 1.4414 13.137 7.418 14.367 14.738zm0.25781-30.355h-13.438v-4.3438h13.438z"/>
 </g>
</svg>
