<?xml version="1.0" encoding="UTF-8"?>
<svg width="167px" height="169px" viewBox="0 0 167 169" version="1.1" xmlns="http://www.w3.org/2000/svg" xmlns:xlink="http://www.w3.org/1999/xlink">
    <!-- Generator: Sketch 52.3 (67297) - http://www.bohemiancoding.com/sketch -->
    <title>Artboard</title>
    <desc>Created with Sketch.</desc>
    <defs>
        <linearGradient x1="59.7189696%" y1="88.1818182%" x2="40.2029664%" y2="22.5757576%" id="linearGradient-1">
            <stop stop-color="#FFFFFF" stop-opacity="0" offset="0%"></stop>
            <stop stop-color="#E8E8E9" stop-opacity="0.34" offset="27%"></stop>
            <stop stop-color="#D4D6D7" stop-opacity="0.63" offset="51%"></stop>
            <stop stop-color="#C7C8CA" stop-opacity="0.83" offset="73%"></stop>
            <stop stop-color="#BEC0C2" stop-opacity="0.95" offset="90%"></stop>
            <stop stop-color="#BBBDBF" offset="100%"></stop>
        </linearGradient>
    </defs>
    <g id="Artboard" stroke="none" stroke-width="1" fill="none" fill-rule="evenodd">
        <g id="Element-4" transform="translate(0.000000, 34.000000)" fill-rule="nonzero">
            <g id="_Gruppe_3" transform="translate(83.000000, 85.000000)">
                <g id="_Gruppe_4">
                    <g id="_Gruppe_5" transform="translate(0.000000, 36.000000)" fill="#8A8C80">
                        <g id="_Gruppe_6">
                            <g id="_Gruppe_7">
                                <polygon id="_Pfad_" points="0.2 0.22 0.2 1.97 20.55 13.7 20.55 11.94"></polygon>
                            </g>
                        </g>
                    </g>
                    <g id="_Gruppe_8" transform="translate(20.000000, 12.000000)" fill="#7E8075">
                        <g id="_Gruppe_9">
                            <g id="_Gruppe_10">
                                <polygon id="_Pfad_2" points="62.53 0.15 62.53 1.9 0.55 37.7 0.55 35.94"></polygon>
                            </g>
                        </g>
                    </g>
                    <polygon id="_Pfad_3" fill="#AAAC9F" points="82.53 12.15 62.2 0.41 0.2 36.22 20.55 47.94"></polygon>
                </g>
            </g>
            <g id="_Gruppe_11" transform="translate(98.000000, 76.000000)">
                <g id="_Gruppe_12" transform="translate(4.000000, 2.000000)" fill="#BABAE3">
                    <g id="_Gruppe_13">
                        <g id="_Gruppe_14">
                            <polygon id="_Pfad_4" points="3.97 0.9 3.97 44.31 0.4 46.46 0.4 3.05"></polygon>
                        </g>
                    </g>
                </g>
                <g id="_Gruppe_15" transform="translate(0.000000, 2.000000)" fill="#E3E3ED">
                    <g id="_Gruppe_16">
                        <g id="_Gruppe_17">
                            <polygon id="_Pfad_5" points="0.81 0.97 0.81 44.38 4.4 46.46 4.4 3.05"></polygon>
                        </g>
                    </g>
                </g>
                <polygon id="_Pfad_6" fill="#F6F6F7" points="0.81 2.97 4.37 0.83 7.97 2.9 4.4 5.05"></polygon>
            </g>
            <g id="_Gruppe_18" transform="translate(145.000000, 50.000000)">
                <g id="_Gruppe_19" transform="translate(3.000000, 2.000000)" fill="#BABAE3">
                    <g id="_Gruppe_20">
                        <g id="_Gruppe_21">
                            <polygon id="_Pfad_7" points="4.18 0.23 4.18 43.63 0.61 45.78 0.61 2.37"></polygon>
                        </g>
                    </g>
                </g>
                <g id="_Gruppe_22" transform="translate(0.000000, 2.000000)" fill="#E3E3ED">
                    <g id="_Gruppe_23">
                        <g id="_Gruppe_24">
                            <polygon id="_Pfad_8" points="0.01 0.29 0.01 43.7 3.61 45.78 3.61 2.37"></polygon>
                        </g>
                    </g>
                </g>
                <polygon id="_Pfad_9" fill="#F6F6F7" points="0.01 2.29 3.58 0.15 7.18 2.23 3.61 4.37"></polygon>
            </g>
            <g id="_Gruppe_25" transform="translate(0.000000, 37.000000)">
                <g id="_Gruppe_26">
                    <g id="_Gruppe_27" transform="translate(0.000000, 36.000000)" fill="#8A8C80">
                        <g id="_Gruppe_28">
                            <g id="_Gruppe_29">
                                <polygon id="_Pfad_10" points="0 0.18 0 1.93 44.01 27.33 44.01 25.57"></polygon>
                            </g>
                        </g>
                    </g>
                    <g id="_Gruppe_30" transform="translate(44.000000, 25.000000)" fill="#7E8075">
                        <g id="_Gruppe_31">
                            <g id="_Gruppe_32">
                                <polygon id="_Pfad_11" points="62.04 0.74 62.04 2.5 0.01 38.33 0.01 36.57"></polygon>
                            </g>
                        </g>
                    </g>
                    <polygon id="_Pfad_12" fill="#AAAC9F" points="106.04 25.74 62.05 0.34 0 36.18 44.01 61.57"></polygon>
                </g>
            </g>
            <g id="_Gruppe_33" transform="translate(8.000000, 4.000000)">
                <g id="_Gruppe_34">
                    <g id="_Gruppe_35" transform="translate(34.000000, 20.000000)" fill="#AD171C">
                        <g id="_Gruppe_36">
                            <g id="_Gruppe_37">
                                <polygon id="_Pfad_13" points="48.09 0.18 48.09 39.48 18.94 56.32 18.92 56.3 17.63 55.55 9.77 60.09 9.77 61.61 0.83 66.78 0.83 27.46"></polygon>
                            </g>
                        </g>
                    </g>
                    <g id="_Gruppe_38" transform="translate(0.000000, 27.000000)" fill="#CF1B22">
                        <g id="_Gruppe_39">
                            <g id="_Gruppe_40">
                                <polygon id="_Pfad_14" points="0.11 39.71 0.11 0.42 34.83 20.46 34.83 59.78"></polygon>
                            </g>
                        </g>
                    </g>
                    <polygon id="_Pfad_15" fill="#B0CC38" points="0.11 27.41 47.38 0.14 82.09 20.18 34.83 47.46"></polygon>
                </g>
            </g>
            <g id="_Gruppe_41" transform="translate(10.000000, 48.000000)">
                <g id="_Gruppe_42">
                    <g id="_Gruppe_43">
                        <g id="_Gruppe_44">
                            <g id="_Gruppe_45" fill="#E2E3E4">
                                <g id="_Gruppe_46">
                                    <g id="_Gruppe_47">
                                        <polygon id="_Pfad_16" points="0.74 0.14 0.74 15.41 30.89 32.82 30.89 17.55"></polygon>
                                    </g>
                                </g>
                            </g>
                            <g id="_Gruppe_48" fill="#7E8075">
                                <g id="_Gruppe_49">
                                    <g id="_Gruppe_50">
                                        <polygon id="_Pfad_17" points="2.03 0.89 2.03 14.66 0.73 15.41 0.74 0.14"></polygon>
                                    </g>
                                </g>
                            </g>
                        </g>
                    </g>
                </g>
                <polygon id="_Pfad_18" fill="#FFFFFF" points="0.73 15.41 2.03 14.66 30.89 31.32 30.89 32.82"></polygon>
            </g>
            <g id="_Gruppe_51" transform="translate(63.000000, 42.000000)">
                <g id="_Gruppe_52">
                    <g id="_Gruppe_53">
                        <g id="_Gruppe_54">
                            <g id="_Gruppe_55" fill="#E2E3E4">
                                <g id="_Gruppe_56">
                                    <g id="_Gruppe_57">
                                        <polygon id="_Pfad_19" points="21.78 0.98 21.78 16.25 0.51 28.53 0.51 13.27"></polygon>
                                    </g>
                                </g>
                            </g>
                            <g id="_Gruppe_58" transform="translate(20.000000, 0.000000)" fill="#7E8075">
                                <g id="_Gruppe_59">
                                    <g id="_Gruppe_60">
                                        <polygon id="_Pfad_20" points="0.49 1.73 0.49 15.5 1.78 16.25 1.78 0.98"></polygon>
                                    </g>
                                </g>
                            </g>
                        </g>
                    </g>
                </g>
                <polygon id="_Pfad_21" fill="#FFFFFF" points="21.78 16.25 20.49 15.5 0.51 27.04 0.51 28.53"></polygon>
            </g>
            <g id="_Gruppe_61" transform="translate(51.000000, 56.000000)">
                <g id="_Gruppe_62">
                    <g id="_Gruppe_63">
                        <g id="_Gruppe_64">
                            <g id="_Gruppe_65">
                                <g id="_Gruppe_66" fill="#40404A">
                                    <g id="_Gruppe_67">
                                        <g id="_Gruppe_68">
                                            <polygon id="_Pfad_22" points="0.77 5.4 0.77 28.09 8.63 23.55 9.92 24.3 9.93 24.3 9.93 24.29 9.92 0.12"></polygon>
                                        </g>
                                    </g>
                                </g>
                                <g id="_Gruppe_69" transform="translate(8.000000, 0.000000)" fill="#CF1B22">
                                    <g id="_Gruppe_70">
                                        <g id="_Gruppe_71">
                                            <polygon id="_Pfad_23" points="0.63 0.86 0.63 23.55 1.92 24.3 1.92 0.12"></polygon>
                                        </g>
                                    </g>
                                </g>
                            </g>
                        </g>
                    </g>
                </g>
                <g id="_Gruppe_72" transform="translate(1.000000, 2.000000)">
                    <g id="_Gruppe_73">
                        <g id="_Gruppe_74">
                            <g id="_Gruppe_75">
                                <g id="_Gruppe_76" fill="#585859">
                                    <g id="_Gruppe_77">
                                        <g id="_Gruppe_78">
                                            <polygon id="_Pfad_24" points="6.88 0.38 6.88 14.7 0.65 18.3 0.65 3.98"></polygon>
                                        </g>
                                    </g>
                                </g>
                                <g id="_Gruppe_79" transform="translate(6.000000, 0.000000)" fill="#1C1C1C">
                                    <g id="_Gruppe_80">
                                        <g id="_Gruppe_81">
                                            <polygon id="_Pfad_25" points="0.21 0.77 0.21 14.31 0.88 14.7 0.88 0.38"></polygon>
                                        </g>
                                    </g>
                                </g>
                            </g>
                        </g>
                    </g>
                    <polygon id="_Pfad_26" fill="#424242" points="6.88 14.7 6.21 14.31 0.65 17.52 0.65 18.3"></polygon>
                </g>
            </g>
            <g id="_Gruppe_82" transform="translate(8.000000, 0.000000)">
                <polygon id="_Pfad_27" fill="#D2D2DB" points="47.5 5.53 77.5 22.85 77.5 20.12 47.5 2.8"></polygon>
                <polygon id="_Pfad_28" fill="#B6B6D1" points="47.5 2.8 47.5 5.53 2.54 31.49 2.54 28.76"></polygon>
                <g id="_Gruppe_83" transform="translate(34.000000, 20.000000)" fill="#B6B6D1">
                    <g id="_Gruppe_84">
                        <g id="_Gruppe_85">
                            <polygon id="_Pfad_29" points="48.12 0 48.12 4.23 0.87 31.52 0.87 27.28"></polygon>
                        </g>
                    </g>
                </g>
                <g id="_Gruppe_86" transform="translate(0.000000, 27.000000)" fill="#D2D2DB">
                    <g id="_Gruppe_87">
                        <g id="_Gruppe_88">
                            <polygon id="_Pfad_30" points="0.22 0.27 0.22 4.51 34.87 24.52 34.87 20.28"></polygon>
                        </g>
                    </g>
                </g>
                <path d="M47.48,0 L0.22,27.27 L34.87,47.27 L82.12,20 L47.48,0 Z M4.9,27.4 L47.5,2.8 L77.5,20.12 L34.9,44.72 L4.9,27.4 Z" id="_Zusammengesetzter_Pfad_" fill="#F6F6F7"></path>
                <polygon id="_Pfad_31" fill="#5D635C" points="47.5 5.53 7.26 28.76 34.9 44.72 75.14 21.49"></polygon>
                <polygon id="_Pfad_32" fill="#767D74" points="46.5 8.62 12.62 28.19 35.89 41.63 69.78 22.06"></polygon>
            </g>
            <g id="_Gruppe_89" transform="translate(109.000000, 91.000000)">
                <g id="_Gruppe_90" transform="translate(6.000000, 4.000000)" fill="#AD171C">
                    <g id="_Gruppe_91">
                        <g id="_Gruppe_92">
                            <polygon id="_Pfad_33" points="7.1 0.06 7.1 19.38 0.62 23.29 0.62 3.96"></polygon>
                        </g>
                    </g>
                </g>
                <g id="_Gruppe_93" transform="translate(0.000000, 4.000000)" fill="#CF1B22">
                    <g id="_Gruppe_94">
                        <g id="_Gruppe_95">
                            <polygon id="_Pfad_34" points="0.07 0.18 0.07 19.51 6.62 23.29 6.62 3.96"></polygon>
                        </g>
                    </g>
                </g>
                <polygon id="_Pfad_35" fill="#E81E26" points="0.07 4.18 6.56 0.28 13.1 4.06 6.62 7.96"></polygon>
                <g id="_Gruppe_96" transform="translate(6.000000, 11.000000)" fill="#941418">
                    <g id="_Gruppe_97">
                        <g id="_Gruppe_98">
                            <polygon id="_Pfad_36" points="5 0.63 5 2.3 0.97 4.62 0.97 2.95"></polygon>
                        </g>
                    </g>
                </g>
                <g id="_Gruppe_99" transform="translate(6.000000, 5.000000)">
                    <g id="_Gruppe_100">
                        <g id="_Gruppe_101">
                            <g id="_Gruppe_102">
                                <g id="_Gruppe_103" fill="#E2E3E4">
                                    <g id="_Gruppe_104">
                                        <g id="_Gruppe_105">
                                            <polygon id="_Pfad_37" points="5.04 0.76 5.04 6.01 0.97 8.36 0.97 3.11"></polygon>
                                        </g>
                                    </g>
                                </g>
                                <g id="_Gruppe_106" transform="translate(4.000000, 0.000000)" fill="#7E8075">
                                    <g id="_Gruppe_107">
                                        <g id="_Gruppe_108">
                                            <polygon id="_Pfad_38" points="0.6 1.02 0.6 5.75 1.04 6.01 1.04 0.76"></polygon>
                                        </g>
                                    </g>
                                </g>
                            </g>
                        </g>
                    </g>
                    <polygon id="_Pfad_39" fill="#FFFFFF" points="5.04 6.01 4.6 5.75 0.97 7.85 0.97 8.36"></polygon>
                </g>
                <g id="_Gruppe_109" transform="translate(6.000000, 14.000000)" fill="#941418">
                    <g id="_Gruppe_110">
                        <g id="_Gruppe_111">
                            <polygon id="_Pfad_40" points="3.17 0.89 3.17 1.52 0.97 2.79 0.97 2.15"></polygon>
                        </g>
                    </g>
                </g>
            </g>
            <g id="_Gruppe_112" transform="translate(128.000000, 79.000000)">
                <g id="_Gruppe_113" transform="translate(7.000000, 4.000000)" fill="#AD171C">
                    <g id="_Gruppe_114">
                        <g id="_Gruppe_115">
                            <polygon id="_Pfad_41" points="6.87 0.65 6.87 19.97 0.38 23.88 0.38 4.55"></polygon>
                        </g>
                    </g>
                </g>
                <g id="_Gruppe_116" transform="translate(0.000000, 4.000000)" fill="#CF1B22">
                    <g id="_Gruppe_117">
                        <g id="_Gruppe_118">
                            <polygon id="_Pfad_42" points="0.84 0.77 0.84 20.1 7.38 23.88 7.38 4.55"></polygon>
                        </g>
                    </g>
                </g>
                <polygon id="_Pfad_43" fill="#E81E26" points="0.84 4.77 7.32 0.87 13.87 4.65 7.38 8.55"></polygon>
                <g id="_Gruppe_119" transform="translate(7.000000, 12.000000)" fill="#941418">
                    <g id="_Gruppe_120">
                        <g id="_Gruppe_121">
                            <polygon id="_Pfad_44" points="4.77 0.22 4.77 1.89 0.73 4.21 0.73 2.54"></polygon>
                        </g>
                    </g>
                </g>
                <g id="_Gruppe_122" transform="translate(7.000000, 6.000000)">
                    <g id="_Gruppe_123">
                        <g id="_Gruppe_124">
                            <g id="_Gruppe_125">
                                <g id="_Gruppe_126" fill="#E2E3E4">
                                    <g id="_Gruppe_127">
                                        <g id="_Gruppe_128">
                                            <polygon id="_Pfad_45" points="4.8 0.35 4.8 5.6 0.73 7.95 0.73 2.7"></polygon>
                                        </g>
                                    </g>
                                </g>
                                <g id="_Gruppe_129" transform="translate(4.000000, 0.000000)" fill="#7E8075">
                                    <g id="_Gruppe_130">
                                        <g id="_Gruppe_131">
                                            <polygon id="_Pfad_46" points="0.36 0.61 0.36 5.34 0.8 5.6 0.8 0.35"></polygon>
                                        </g>
                                    </g>
                                </g>
                            </g>
                        </g>
                    </g>
                    <polygon id="_Pfad_47" fill="#FFFFFF" points="4.8 5.6 4.36 5.34 0.73 7.44 0.73 7.95"></polygon>
                </g>
                <g id="_Gruppe_132" transform="translate(7.000000, 15.000000)" fill="#941418">
                    <g id="_Gruppe_133">
                        <g id="_Gruppe_134">
                            <polygon id="_Pfad_48" points="2.93 0.47 2.93 1.11 0.73 2.38 0.73 1.74"></polygon>
                        </g>
                    </g>
                </g>
            </g>
            <g id="_Gruppe_135" transform="translate(47.000000, 5.000000)">
                <g id="_Gruppe_136">
                    <polygon id="_Pfad_49" fill="#D2D2DB" points="8.69 4.55 13.36 7.24 13.36 5.45 8.69 2.75"></polygon>
                    <polygon id="_Pfad_50" fill="#B6B6D1" points="8.69 2.75 8.69 4.55 2.46 8.14 2.46 6.35"></polygon>
                    <g id="_Gruppe_137" transform="translate(8.000000, 5.000000)" fill="#B6B6D1">
                        <g id="_Gruppe_138">
                            <g id="_Gruppe_139">
                                <polygon id="_Pfad_51" points="8.41 0.37 8.41 3.15 0.67 7.63 0.67 4.83"></polygon>
                            </g>
                        </g>
                    </g>
                    <g id="_Gruppe_140" transform="translate(0.000000, 5.000000)" fill="#D2D2DB">
                        <g id="_Gruppe_141">
                            <g id="_Gruppe_142">
                                <polygon id="_Pfad_52" points="0.93 0.37 0.93 3.15 8.67 7.63 8.67 4.83"></polygon>
                            </g>
                        </g>
                    </g>
                    <path d="M8.67,0.9 L0.93,5.37 L8.67,9.83 L16.41,5.37 L8.67,0.9 Z M4,5.45 L8.67,2.75 L13.34,5.45 L8.67,8.14 L4,5.45 Z" id="_Zusammengesetzter_Pfad_2" fill="#F1F1F2"></path>
                    <polygon id="_Pfad_53" fill="#A2A2BA" points="8.69 4.55 5.57 6.35 8.69 8.14 11.8 6.35"></polygon>
                </g>
                <polygon id="_Pfad_54" fill="url(#linearGradient-1)" style="mix-blend-mode: multiply;" points="16.41 8.15 8.67 12.63 14.97 14.75 21.48 10.99"></polygon>
            </g>
            <g id="_Gruppe_143" transform="translate(38.000000, 11.000000)">
                <g id="_Gruppe_144">
                    <g id="_Gruppe_145" transform="translate(0.000000, 30.000000)" fill="#CF1B22">
                        <g id="_Gruppe_146">
                            <g id="_Gruppe_147">
                                <polygon id="_Pfad_55" points="0.57 0.22 0.57 3.84 64.39 40.67 64.39 37.05"></polygon>
                            </g>
                        </g>
                    </g>
                    <g id="_Gruppe_148" transform="translate(64.000000, 37.000000)" fill="#AD171C">
                        <g id="_Gruppe_149">
                            <g id="_Gruppe_150">
                                <polygon id="_Pfad_56" points="52.31 0.06 52.31 3.67 0.39 33.67 0.39 30.05"></polygon>
                            </g>
                        </g>
                    </g>
                    <polygon id="_Pfad_57" fill="#F6F6F7" points="116.31 37.06 52.51 0.22 0.57 30.22 64.39 67.05"></polygon>
                </g>
            </g>
            <g id="_Gruppe_151" transform="translate(9.000000, 26.000000)">
                <g id="_Gruppe_152" transform="translate(3.000000, 10.000000)">
                    <g id="_Gruppe_153" transform="translate(18.000000, 11.000000)">
                        <g id="_Gruppe_154">
                            <g id="_Gruppe_155" transform="translate(2.000000, 1.000000)" fill="#292930">
                                <g id="_Gruppe_156">
                                    <g id="_Gruppe_157">
                                        <polygon id="_Pfad_58" points="9.16 0.73 9.16 3.55 0.61 8.55 0.61 5.73"></polygon>
                                    </g>
                                </g>
                            </g>
                            <g id="_Gruppe_158" transform="translate(0.000000, 5.000000)" fill="#40404A">
                                <g id="_Gruppe_159">
                                    <g id="_Gruppe_160">
                                        <polygon id="_Pfad_59" points="0.74 0.65 0.74 3.47 2.61 4.55 2.61 1.73"></polygon>
                                    </g>
                                </g>
                            </g>
                            <polygon id="_Pfad_60" fill="#616170" points="0.74 5.65 9.29 0.65 11.16 1.73 2.61 6.73"></polygon>
                        </g>
                    </g>
                    <g id="_Gruppe_161">
                        <g id="_Gruppe_162">
                            <g id="_Gruppe_163" transform="translate(1.000000, 1.000000)" fill="#292930">
                                <g id="_Gruppe_164">
                                    <g id="_Gruppe_165">
                                        <polygon id="_Pfad_61" points="9.48 0.94 9.48 3.77 0.93 8.77 0.93 5.94"></polygon>
                                    </g>
                                </g>
                            </g>
                            <g id="_Gruppe_166" transform="translate(0.000000, 5.000000)" fill="#40404A">
                                <g id="_Gruppe_167">
                                    <g id="_Gruppe_168">
                                        <polygon id="_Pfad_62" points="0.06 0.86 0.06 3.69 1.93 4.77 1.93 1.94"></polygon>
                                    </g>
                                </g>
                            </g>
                            <polygon id="_Pfad_63" fill="#616170" points="0.06 5.86 8.61 0.87 10.48 1.94 1.93 6.94"></polygon>
                        </g>
                    </g>
                </g>
                <g id="_Gruppe_169">
                    <g id="_Gruppe_170">
                        <g id="_Gruppe_171" transform="translate(0.000000, 1.000000)" fill="#E3E3ED">
                            <g id="_Gruppe_172">
                                <g id="_Gruppe_173">
                                    <polygon id="_Pfad_64" points="0.18 0.78 0.18 16.05 26.21 31.08 26.21 15.81"></polygon>
                                </g>
                            </g>
                        </g>
                        <g id="_Gruppe_174" transform="translate(26.000000, 15.000000)" fill="#CFCFE3">
                            <g id="_Gruppe_175">
                                <g id="_Gruppe_176">
                                    <polygon id="_Pfad_65" points="2.57 0.45 2.57 15.71 0.21 17.08 0.21 1.81"></polygon>
                                </g>
                            </g>
                        </g>
                        <polygon id="_Pfad_66" fill="#FFFFFF" points="28.57 15.45 2.55 0.42 0.18 1.78 26.21 16.81"></polygon>
                    </g>
                </g>
            </g>
            <g id="_Gruppe_177" transform="translate(105.000000, 55.000000)">
                <g id="_Gruppe_178" fill="#CFCFE3">
                    <g id="_Gruppe_179">
                        <g id="_Gruppe_180">
                            <g id="_Gruppe_181">
                                <polygon id="_Pfad_67" points="42.61 0.55 42.61 12.05 0.96 36.11 0.96 24.61"></polygon>
                            </g>
                        </g>
                    </g>
                </g>
                <g id="_Gruppe_182" transform="translate(2.000000, 14.000000)" fill="#CF1B22">
                    <g id="_Gruppe_183">
                        <g id="_Gruppe_184">
                            <g id="_Gruppe_185">
                                <g id="_Gruppe_186">
                                    <polygon id="_Pfad_68" points="18.55 0.91 18.55 8.69 0.29 19.25 0.29 11.46"></polygon>
                                </g>
                            </g>
                        </g>
                    </g>
                </g>
                <g id="_Gruppe_187" transform="translate(22.000000, 3.000000)" fill="#CF1B22">
                    <g id="_Gruppe_188">
                        <g id="_Gruppe_189">
                            <g id="_Gruppe_190">
                                <g id="_Gruppe_191">
                                    <polygon id="_Pfad_69" points="18.49 0.4 18.49 8.18 0.22 18.74 0.22 10.95"></polygon>
                                </g>
                            </g>
                        </g>
                    </g>
                </g>
            </g>
            <g id="_Gruppe_192" transform="translate(86.000000, 114.000000)">
                <g id="_Gruppe_193">
                    <g id="_Gruppe_194">
                        <g id="_Gruppe_195" transform="translate(0.000000, 1.000000)" fill="#40404A">
                            <path d="M2.79,0.18 L2.71,14.12 C2.69272258,14.3246833 2.56665155,14.504239 2.38,14.59 C1.86430898,14.8502564 1.25569102,14.8502564 0.74,14.59 C0.544030582,14.5064246 0.409654972,14.322138 0.39,14.11 L0.47,0.18 C0.48980813,0.389115906 0.619302143,0.571930984 0.81,0.66 C1.32569102,0.920256425 1.93430898,0.920256425 2.45,0.66 C2.64069786,0.571930984 2.77019187,0.389115906 2.79,0.18 Z" id="_Pfad_70"></path>
                        </g>
                        <g id="_Gruppe_196" fill="#818182">
                            <path d="M2.45,0.7 C2.72614237,0.7 2.95,0.923857625 2.95,1.2 C2.95,1.47614237 2.72614237,1.7 2.45,1.7 C1.93430898,1.96025643 1.32569102,1.96025643 0.81,1.7 C0.35,1.43 0.35,1 0.81,0.7 C1.3264392,0.442905876 1.9335608,0.442905876 2.45,0.7 Z" id="_Pfad_71"></path>
                        </g>
                    </g>
                </g>
                <g id="_Gruppe_197" transform="translate(8.000000, 5.000000)">
                    <g id="_Gruppe_198">
                        <g id="_Gruppe_199" transform="translate(0.000000, 1.000000)" fill="#40404A">
                            <path d="M3.27,0.08 L3.2,14 C3.18082141,14.2069337 3.05053934,14.3870294 2.86,14.47 C2.34430898,14.7302564 1.73569102,14.7302564 1.22,14.47 C1.02792158,14.3836 0.897775573,14.1998645 0.88,13.99 L1,0.08 C1.01917859,0.286933651 1.14946066,0.467029446 1.34,0.55 C1.85451332,0.81515777 2.46548668,0.81515777 2.98,0.55 C3.15117636,0.453750191 3.26075157,0.276162789 3.27,0.08 Z" id="_Pfad_72"></path>
                        </g>
                        <g id="_Gruppe_200" fill="#818182">
                            <path d="M2.93,0.6 C3.20614237,0.6 3.43,0.823857625 3.43,1.1 C3.43,1.37614237 3.20614237,1.6 2.93,1.6 C2.41548668,1.86515777 1.80451332,1.86515777 1.29,1.6 C1.01385763,1.6 0.79,1.37614237 0.79,1.1 C0.79,0.823857625 1.01385763,0.6 1.29,0.6 C1.80569102,0.339743575 2.41430898,0.339743575 2.93,0.6 Z" id="_Pfad_73"></path>
                        </g>
                    </g>
                </g>
            </g>
            <g id="_Gruppe_201" transform="translate(154.000000, 75.000000)">
                <g id="_Gruppe_202">
                    <g id="_Gruppe_203">
                        <g id="_Gruppe_204" transform="translate(0.000000, 1.000000)" fill="#40404A">
                            <path d="M2.69,0 L2.62,13.94 C2.60082141,14.1469337 2.47053934,14.3270294 2.28,14.41 C1.76430898,14.6702564 1.15569102,14.6702564 0.64,14.41 C0.449302143,14.321931 0.31980813,14.1391159 0.3,13.93 L0.37,0 C0.391750812,0.208389646 0.520631829,0.390339317 0.71,0.48 C1.22569102,0.740256425 1.83430898,0.740256425 2.35,0.48 C2.54351309,0.395352506 2.67435364,0.210636431 2.69,0 Z" id="_Pfad_74"></path>
                        </g>
                        <g id="_Gruppe_205" fill="#818182">
                            <path d="M2.35,0.5 C2.62614237,0.5 2.85,0.723857625 2.85,1 C2.85,1.27614237 2.62614237,1.5 2.35,1.5 C1.83430898,1.76025643 1.22569102,1.76025643 0.71,1.5 C0.433857625,1.5 0.21,1.27614237 0.21,1 C0.21,0.723857625 0.433857625,0.5 0.71,0.5 C1.22569102,0.239743575 1.83430898,0.239743575 2.35,0.5 Z" id="_Pfad_75"></path>
                        </g>
                    </g>
                </g>
                <g id="_Gruppe_206" transform="translate(8.000000, 5.000000)">
                    <g id="_Gruppe_207">
                        <g id="_Gruppe_208" fill="#40404A">
                            <path d="M3.18,0.87 L3.1,14.81 C3.08272258,15.0146833 2.95665155,15.194239 2.77,15.28 C2.25430898,15.5402564 1.64569102,15.5402564 1.13,15.28 C0.939302143,15.191931 0.80980813,15.0091159 0.79,14.8 L0.86,0.86 C0.877775573,1.06986449 1.00792158,1.25360003 1.2,1.34 C1.71569102,1.60025643 2.32430898,1.60025643 2.84,1.34 C3.02656864,1.25216838 3.15496193,1.07468353 3.18,0.87 Z" id="_Pfad_76"></path>
                        </g>
                        <g id="_Gruppe_209" fill="#818182">
                            <path d="M2.84,0.4 C3.29,0.66 3.29,1.08 2.84,1.35 C2.32430898,1.61025643 1.71569102,1.61025643 1.2,1.35 C0.994812732,1.28255821 0.85612495,1.0909866 0.85612495,0.875 C0.85612495,0.659013402 0.994812732,0.467441794 1.2,0.4 C1.71410516,0.13316455 2.32589484,0.13316455 2.84,0.4 Z" id="_Pfad_77"></path>
                        </g>
                    </g>
                </g>
            </g>
            <polygon id="_Pfad_78" fill="#E4E4E6" points="147.99 47.69 91.16 14.87 44.89 41.59 101.74 74.4"></polygon>
        </g>
    </g>
</svg>